<?xml version="1.0" encoding="utf-8"?>
<!-- Generator: Adobe Illustrator 15.1.0, SVG Export Plug-In . SVG Version: 6.00 Build 0)  -->
<!DOCTYPE svg PUBLIC "-//W3C//DTD SVG 1.1//EN" "http://www.w3.org/Graphics/SVG/1.1/DTD/svg11.dtd">
<svg version="1.1" id="Calque_1" xmlns="http://www.w3.org/2000/svg" xmlns:xlink="http://www.w3.org/1999/xlink" x="0px" y="0px"
	 width="595.281px" height="841.891px" viewBox="0 0 595.281 841.891" enable-background="new 0 0 595.281 841.891"
	 xml:space="preserve">
<g>
	<circle cx="283.209" cy="207.636" r="52.313"/>
	<path d="M183.996,444.847c11.725,2.706,20.745-8.118,33.372-13.529l-19.843-32.47l17.137-35.176l9.02,64.939
		c5.412-1.804,11.725-2.705,18.039-2.705c13.529,0,26.156,4.509,37.882,12.627c10.823,8.117,26.156,8.117,37.88,0
		c15.334-11.726,35.176-15.333,52.313-10.823l1.805-113.645l25.254-99.213c0.902-4.51,0.902-9.921-1.803-13.529l-56.822-91.998
		c-5.412-8.117-16.236-10.823-24.354-6.313c-8.117,5.412-10.822,16.235-6.313,24.353l52.313,85.684l-17.137,64.94
		c-72.156-30.666-133.488,13.529-141.605,30.666l-40.587,83.881c-2.706,5.411-2.706,12.627,0.902,17.137L183.996,444.847z"/>
	<path d="M575.437,549.472l-27.959,20.744c-14.432,10.823-33.373,10.823-48.705,0c-18.941-14.431-45.098-14.431-64.037,0
		c-14.432,10.823-34.275,10.823-48.705,0c-18.941-14.431-45.098-14.431-64.039,0c-14.43,10.823-34.273,10.823-48.704,0
		c-18.94-14.431-45.097-14.431-64.038,0c-14.431,10.823-33.372,10.823-48.705,0c-18.941-14.431-45.097-14.431-64.038,0
		c-14.431,10.823-33.372,10.823-47.803,0l-27.96-20.744c-2.706-1.804-7.215-1.804-9.02,1.804c-1.804,3.607-1.804,7.216,1.804,9.02
		l27.058,20.744c18.94,14.432,45.097,14.432,64.038,0c14.431-10.823,34.274-10.823,48.705,0c18.941,14.432,45.097,14.432,64.038,0
		c14.431-10.823,33.372-10.823,48.705,0c18.941,14.432,45.097,14.432,64.039,0c14.43-10.823,34.273-10.823,48.703,0
		c18.941,14.432,45.098,14.432,64.039,0c14.43-10.823,33.371-10.823,48.705,0c18.939,14.432,45.096,14.432,64.037,0l27.959-20.744
		c2.707-1.804,3.609-6.313,1.805-9.02C582.654,547.668,578.144,547.668,575.437,549.472z"/>
	<path d="M575.437,487.237l-27.959,20.745c-14.432,10.823-33.373,10.823-48.705,0c-18.941-14.432-45.098-14.432-64.037,0
		c-14.432,10.823-34.275,10.823-48.705,0c-18.941-14.432-45.098-14.432-64.039,0c-14.43,10.823-34.273,10.823-48.704,0
		c-18.94-14.432-45.097-14.432-64.038,0c-14.431,10.823-33.372,10.823-48.705,0c-18.941-14.432-45.097-14.432-64.038,0
		c-14.431,10.823-34.273,10.823-48.705,0l-27.96-20.745c-2.706-1.804-7.216-1.804-9.02,1.804c-1.804,2.706-1.804,7.216,1.804,9.02
		l27.96,20.745c18.94,14.431,45.097,14.431,64.038,0c14.431-10.823,34.274-10.823,48.705,0c18.941,14.431,45.097,14.431,64.038,0
		c14.431-10.823,33.372-10.823,48.705,0c18.941,14.431,45.097,14.431,64.039,0c14.43-10.823,34.273-10.823,48.703,0
		c18.941,14.431,45.098,14.431,64.039,0c14.43-10.823,33.371-10.823,48.705,0c18.939,14.431,45.096,14.431,64.037,0l27.959-20.745
		c2.707-1.804,3.609-6.313,1.805-9.02C582.654,485.434,578.144,485.434,575.437,487.237z"/>
	<path d="M40.587,457.474c18.94,14.431,45.097,14.431,64.038,0c14.431-10.823,34.274-10.823,48.705,0
		c18.941,14.431,45.097,14.431,64.038,0c14.431-10.823,33.372-10.823,48.705,0c18.941,14.431,45.097,14.431,64.039,0
		c14.43-10.823,34.273-10.823,48.703,0c18.941,14.431,45.098,14.431,64.039,0c14.43-10.823,33.371-10.823,48.705,0
		c18.939,14.431,45.096,14.431,64.037,0l27.959-20.745c2.707-1.804,3.609-6.313,1.805-9.019c-1.805-2.706-6.314-3.608-9.02-1.805
		l-27.961,20.745c-14.43,10.823-33.371,10.823-48.703,0c-18.941-14.431-45.098-14.431-64.039,0
		c-14.43,10.823-34.273,10.823-48.705,0c-18.939-14.431-45.096-14.431-64.037,0c-14.432,10.823-34.273,10.823-48.705,0
		c-18.94-14.431-45.097-14.431-64.038,0c-14.431,10.823-33.372,10.823-48.705,0c-18.941-14.431-45.097-14.431-64.038,0
		c-14.431,10.823-34.274,10.823-48.705,0l-27.96-20.745c-2.706-1.804-7.215-1.804-9.02,1.805c-1.804,2.705-1.804,7.215,1.804,9.019
		L40.587,457.474z"/>
</g>
</svg>
