<?xml version="1.0" encoding="utf-8"?>
<!-- Generator: Adobe Illustrator 15.1.0, SVG Export Plug-In . SVG Version: 6.00 Build 0)  -->
<!DOCTYPE svg PUBLIC "-//W3C//DTD SVG 1.1//EN" "http://www.w3.org/Graphics/SVG/1.1/DTD/svg11.dtd">
<svg version="1.1" id="Calque_1" xmlns="http://www.w3.org/2000/svg" xmlns:xlink="http://www.w3.org/1999/xlink" x="0px" y="0px"
	 width="823.889px" height="471.478px" viewBox="-259.964 163.658 823.889 471.478"
	 enable-background="new -259.964 163.658 823.889 471.478" xml:space="preserve">
<path d="M484.613,365.945L355.455,256.161c-16.541-14.052-46.486-25.092-68.187-25.092h-52.114v-42.896
	c0-13.529-10.968-24.515-24.515-24.515h-18.472c-13.529,0-24.515,10.986-24.515,24.515v43.365
	c-23.198,2.327-46.053,19.626-53.557,41.543l-31.784,92.864c-4.51,0-7.811,0-9.597,0c-30.648,0-43.997,19.067-32.181,43.726
	c17.895,37.34,29.782,63.551,37.611,79.912c13.006,27.13,33.39,39.848,86.496,39.848c85.883,0,239.068,0,239.068,0
	c143.029,0,155.295-163.486,155.295-163.486S529.312,365.945,484.613,365.945z M185.096,473.222
	c-14.106,0-25.543-11.455-25.543-25.543c0-14.124,11.437-25.543,25.543-25.543s25.543,11.418,25.543,25.543
	C210.621,461.785,199.185,473.222,185.096,473.222z M296.612,473.222c-14.106,0-25.543-11.455-25.543-25.543
	c0-14.124,11.437-25.543,25.543-25.543s25.544,11.418,25.544,25.543C322.156,461.785,310.718,473.222,296.612,473.222z
	 M408.146,473.222c-14.107,0-25.543-11.455-25.543-25.543c0-14.124,11.418-25.543,25.543-25.543s25.543,11.418,25.543,25.543
	C433.689,461.785,422.251,473.222,408.146,473.222z M116.874,365.945l28.158-82.311c3.572-10.391,16.813-19.879,27.816-19.879
	h114.42c14.214,0,36.187,8.063,47.009,17.299l6.115,5.177h-104.21l24.515,49.047H398.08l36.061,30.648
	C330.417,365.945,188.704,365.945,116.874,365.945z"/>
<path d="M164.64,529.431L82.311,365.945h-296.229c-4.51,0-7.811,0-9.597,0c-30.648,0-43.997,19.067-32.181,43.726
	c17.895,37.34,29.782,63.551,37.611,79.912c13.006,27.13,33.39,39.848,86.496,39.848c85.883,0,239.068,0,239.068,0H164.64z"/>
<ellipse fill="#FFFFFF" cx="74.14" cy="447.688" rx="25.907" ry="25.621"/>
<circle cx="-19.133" cy="258.541" r="26.358"/>
<path d="M-69.122,378.059c5.908,1.363,10.452-4.09,16.814-6.816l-9.998-16.36l8.634-17.723l4.544,32.72
	c2.727-0.909,5.908-1.363,9.089-1.363c6.817,0,13.179,2.271,19.087,6.362c5.453,4.09,13.178,4.09,19.086,0
	c7.726-5.908,17.723-7.726,26.357-5.453l0.909-57.26l12.724-49.989c0.455-2.272,0.455-4.999-0.908-6.816l-28.63-46.353
	c-2.727-4.09-8.181-5.453-12.271-3.181c-4.09,2.727-5.453,8.18-3.181,12.27l26.358,43.172l-8.634,32.72
	c-36.355-15.451-67.258,6.816-71.348,15.45l-20.45,42.264c-1.363,2.727-1.363,6.362,0.455,8.634L-69.122,378.059z"/>
<path d="M-250.297,565.002c20.774,0,30.906,3.826,41.646,7.872c11.675,4.41,23.75,8.966,47.586,8.966
	c23.848,0,35.923-4.556,47.598-8.966c10.739-4.046,20.883-7.872,41.657-7.872s30.919,3.826,41.646,7.872
	c11.674,4.41,23.75,8.966,47.586,8.966c23.859,0,35.936-4.556,47.623-8.966c10.738-4.046,20.883-7.872,41.682-7.872
	c20.785,0,30.93,3.826,41.67,7.872c11.686,4.41,23.762,8.966,47.621,8.966c4.654,0,8.42-3.778,8.42-8.419s-3.779-8.419-8.42-8.419
	c-20.785,0-30.93-3.827-41.67-7.872c-11.686-4.41-23.762-8.966-47.609-8.966c-23.873,0-35.947,4.556-47.623,8.966
	c-10.738,4.045-20.883,7.872-41.682,7.872c-20.762,0-30.906-3.827-41.645-7.872c-11.676-4.41-23.751-8.966-47.599-8.966
	s-35.923,4.556-47.599,8.966c-10.739,4.045-20.871,7.872-41.657,7.872c-20.774,0-30.906-3.827-41.633-7.872
	c-11.675-4.41-23.75-8.966-47.598-8.966c-4.653,0-8.419,3.778-8.419,8.419S-254.938,565.002-250.297,565.002z"/>
<path d="M196.029,618.298c-20.785,0-30.93-3.814-41.668-7.872c-11.688-4.41-23.764-8.966-47.611-8.966
	c-23.871,0-35.947,4.556-47.623,8.966c-10.738,4.058-20.883,7.872-41.682,7.872c-20.762,0-30.904-3.814-41.645-7.872
	c-11.675-4.41-23.75-8.966-47.598-8.966s-35.924,4.556-47.599,8.966c-10.739,4.058-20.871,7.872-41.657,7.872
	c-20.774,0-30.906-3.814-41.633-7.872c-11.675-4.41-23.75-8.966-47.598-8.966c-4.653,0-8.419,3.778-8.419,8.419
	s3.766,8.419,8.419,8.419c20.774,0,30.906,3.826,41.646,7.872c11.675,4.41,23.75,8.966,47.586,8.966
	c23.848,0,35.924-4.556,47.598-8.966c10.74-4.046,20.884-7.872,41.658-7.872c20.773,0,30.918,3.826,41.645,7.872
	c11.676,4.41,23.75,8.966,47.586,8.966c23.859,0,35.936-4.556,47.623-8.966c10.738-4.046,20.883-7.872,41.682-7.872
	c20.785,0,30.93,3.826,41.67,7.872c11.688,4.41,23.762,8.966,47.621,8.966c4.654,0,8.42-3.778,8.42-8.419
	S200.683,618.298,196.029,618.298z"/>
<path d="M109.18,565.002c20.774,0,30.906,3.826,41.646,7.872c11.675,4.41,23.75,8.966,47.586,8.966
	c23.848,0,35.923-4.556,47.598-8.966c10.739-4.046,20.883-7.872,41.657-7.872s30.919,3.826,41.646,7.872
	c11.674,4.41,23.75,8.966,47.586,8.966c23.859,0,35.936-4.556,47.623-8.966c10.738-4.046,20.883-7.872,41.682-7.872
	c20.785,0,30.93,3.826,41.67,7.872c11.686,4.41,23.762,8.966,47.621,8.966c4.654,0,8.42-3.778,8.42-8.419s-3.779-8.419-8.42-8.419
	c-20.785,0-30.93-3.827-41.67-7.872c-11.686-4.41-23.762-8.966-47.609-8.966c-23.873,0-35.947,4.556-47.623,8.966
	c-10.738,4.045-20.883,7.872-41.682,7.872c-20.762,0-30.906-3.827-41.645-7.872c-11.676-4.41-23.751-8.966-47.599-8.966
	s-35.923,4.556-47.599,8.966c-10.739,4.045-20.871,7.872-41.657,7.872c-20.774,0-30.906-3.827-41.633-7.872
	c-11.675-4.41-23.75-8.966-47.598-8.966c-4.653,0-8.419,3.778-8.419,8.419S104.539,565.002,109.18,565.002z"/>
<path d="M555.505,618.298c-20.785,0-30.93-3.814-41.668-7.872c-11.688-4.41-23.764-8.966-47.611-8.966
	c-23.871,0-35.947,4.556-47.623,8.966c-10.738,4.058-20.883,7.872-41.682,7.872c-20.762,0-30.904-3.814-41.645-7.872
	c-11.675-4.41-23.75-8.966-47.598-8.966s-35.924,4.556-47.599,8.966c-10.739,4.058-20.871,7.872-41.657,7.872
	c-20.774,0-30.906-3.814-41.633-7.872c-11.675-4.41-23.75-8.966-47.598-8.966c-4.653,0-8.419,3.778-8.419,8.419
	s3.766,8.419,8.419,8.419c20.774,0,30.906,3.826,41.646,7.872c11.675,4.41,23.75,8.966,47.586,8.966
	c23.848,0,35.924-4.556,47.598-8.966c10.74-4.046,20.884-7.872,41.658-7.872c20.773,0,30.918,3.826,41.645,7.872
	c11.676,4.41,23.75,8.966,47.586,8.966c23.859,0,35.936-4.556,47.623-8.966c10.738-4.046,20.883-7.872,41.682-7.872
	c20.785,0,30.93,3.826,41.67,7.872c11.688,4.41,23.762,8.966,47.621,8.966c4.654,0,8.42-3.778,8.42-8.419
	S560.16,618.298,555.505,618.298z"/>
<path d="M-49.186,441.644l-38.148-15.65l2.609-55.428c0,0,0,0,0-0.326c0-1.304,0.325-2.609,0-3.587
	c-2.935-46.299-19.889-73.361-21.847-76.296c-3.911-5.869-9.78-9.129-16.301-9.456c3.26-4.564,5.217-10.107,5.217-15.977
	c0-15.324-12.391-27.714-27.716-27.714c-11.737,0-21.845,7.173-25.757,17.606h-19.563v47.93h5.543
	c-0.652,0.326-1.304,0.652-1.63,1.304c-4.891,3.912-5.543,11.085-1.631,15.65l21.519,26.41c1.957,2.609,5.217,3.913,8.478,4.239
	h0.325c3.261,0,6.196-1.304,8.151-3.586l15.325-16.629c2.934,8.478,5.869,19.563,7.5,33.583l-44.018,14.671
	c-4.238,1.304-7.826,4.239-9.782,8.152l-36.518,62.602c-4.891,8.478-1.956,19.563,6.521,24.453c2.934,1.631,5.868,2.283,8.803,2.283
	c6.195,0,12.39-3.262,15.65-9.129l32.931-57.385l31.301-10.434l-1.957,37.496c-0.326,7.499,3.913,14.673,11.086,17.606
	l49.885,20.541c2.282,0.979,4.565,1.305,6.848,1.305c7.173,0,13.694-4.238,16.628-11.086
	C-35.492,455.989-40.056,445.557-49.186,441.644z M-157.761,321.331l-13.368-16.302c-0.978-1.304-1.957-1.957-3.261-2.935h4.891
	v-23.802c4.891,8.152,13.694,14.02,24.127,14.02c0.653,0,1.305,0,2.284,0c-2.284,4.565-2.936,10.108-1.631,14.999L-157.761,321.331z
	"/>
<path d="M-216.08,281.986l24.128-1.304v-25.106l-24.128-1.304v6.521c-1.63,1.957-2.608,4.565-2.608,7.499
	c0,2.935,0.978,5.543,2.608,7.499V281.986z"/>
<ellipse fill="#FFFFFF" cx="-47.662" cy="446.566" rx="25.907" ry="25.621"/>
<line fill="none" stroke="#FFFFFF" stroke-width="5" stroke-miterlimit="10" x1="-238.07" y1="363.445" x2="45.078" y2="363.445"/>
</svg>
