<?xml version="1.0" encoding="utf-8"?>
<!-- Generator: Adobe Illustrator 15.1.0, SVG Export Plug-In . SVG Version: 6.00 Build 0)  -->
<!DOCTYPE svg PUBLIC "-//W3C//DTD SVG 1.1//EN" "http://www.w3.org/Graphics/SVG/1.1/DTD/svg11.dtd">
<svg version="1.1" id="Calque_1" xmlns="http://www.w3.org/2000/svg" xmlns:xlink="http://www.w3.org/1999/xlink" x="0px" y="0px"
	 width="595.281px" height="841.891px" viewBox="0 0 595.281 841.891" enable-background="new 0 0 595.281 841.891"
	 xml:space="preserve">
<path d="M346.667,332.6l4.779,106.9c0.531,10.346-7.422,19.21-17.781,19.728c-10.34,0.536-19.186-7.417-19.715-17.775l-1.047-23.031
	l0,0l-3.406-74.773l-77.32-52.885c-1.292-0.875-2.393-1.94-3.399-3.054l-0.036,0.024c-1.226-1.238-2.256-2.477-3.256-3.721l0,0
	c-9.007-11.161-9.417-22.876-6.709-32.776c10.048-50.962,58.063-81.595,58.063-81.595s27.924-17.489,45.848-7.357v0.018
	c2.477,1.227,4.834,2.81,6.953,4.792c8.156,7.566,10.982,18.608,8.584,28.722c0.352,0.625,0.709,1.227,0.977,1.899l15.752,40.438
	l6.631,1.786l0,0l36.854,9.864c8.721,2.292,13.93,11.233,11.613,19.93c-0.262,1.018-0.637,1.97-1.076,2.887
	c-0.131,0.292-0.322,0.56-0.477,0.845c-0.334,0.601-0.668,1.179-1.078,1.72c-0.215,0.304-0.445,0.578-0.689,0.863
	c-0.4,0.477-0.834,0.929-1.287,1.363c-0.268,0.25-0.535,0.494-0.826,0.738c-0.5,0.399-1.012,0.774-1.561,1.119
	c-0.285,0.178-0.553,0.369-0.852,0.542c-0.701,0.387-1.439,0.726-2.201,1.012c-0.156,0.06-0.287,0.131-0.436,0.185
	c-0.916,0.315-1.869,0.547-2.84,0.69c-0.291,0.047-0.582,0.047-0.863,0.071c-0.535,0.06-1.064,0.137-1.607,0.137
	c-0.125,0-0.256-0.047-0.375-0.047c-1.262-0.03-2.529-0.161-3.803-0.5l-49.676-13.257c-0.488-0.131-0.918-0.351-1.375-0.53l0,0
	c-0.453-0.167-0.93-0.304-1.363-0.506c-4.502-1.458-8.359-4.768-10.229-9.512l-15.035-39.128c0,0-27.61,7.37-47.254,49.408
	l72.492,49.599c0.369,0.25,0.625,0.554,0.977,0.822C343.214,321.45,346.357,326.587,346.667,332.6z M559.777,258.731l0.043-0.024
	l-31.58-75.714c-7.584-18.186-20.686-18.966-20.686-18.966l9.697-27.775c-16.322,2.31-29.057,19.382-29.057,19.382
	c-62.164,11.513-98.732,43.009-120.252,74.416l33.348,8.929c7.102,1.863,13.055,6.387,16.764,12.757
	c3.707,6.352,4.707,13.757,2.832,20.864c-3.184,12.066-14.119,20.49-26.596,20.49c-2.363,0-4.744-0.304-7.072-0.929l-49.658-13.257
	c-1.34-0.345-2.648-0.815-4.018-1.429c-1.221-0.435-2.322-1.054-3.441-1.631c-6.531,6.089-11.395,10.804-11.395,10.804
	s-2.076,0.179-5.541,0.458l30.889,21.132c0.523,0.363,0.982,0.744,1.471,1.172c7.357,5.382,11.834,13.584,12.293,22.681
	l4.66,104.245c0.154,0.083,0.303,0.137,0.465,0.215c1.439,7.738,2.66,15.561,3.268,22.513c-3.453,11.811,1.186,18.448,2.357,26.64
	c1.154,8.202,9.805,58.402,9.805,58.402s-4.281,5.126-1.131,11.787c3.143,6.648,6.221,6.648,6.57,10.756
	c0.369,4.096-4.148,5.12-4.5,12.793c-0.357,7.697,0.906,10.263,0.906,10.263h2.719c1.828,14.049,10.281,13.828,10.281,13.828h33.813
	l-9.709-15.924c-0.572-3.202-2.113-9.09-5.918-10.215c-5.256-1.53-7.416-8.703-4.791-13.828c2.607-5.113,2.439-12.799-1.953-22.025
	c-4.398-9.215-4.346-43.533-4.346-43.533s3.369-8.197,6.424-14.334c1.631-3.328,6.934-9.578,13.68-25.002
	c10.268,3.53,17.043,5.685,17.043,5.685c2.588,9.686,10.268,10.829,10.268,10.829c-0.971,19.751,9.77,18.399-2.869,35.996
	c-2.398,3.346-1.613,8.566-0.416,12.668c-1.68-0.488-3.77-0.81-6.68-0.274c-7.566,1.34-9.799,3.125-9.799,3.125l0.607,2.638
	c-13.305,4.869-11.232,13.078-11.232,13.078l7.404,32.973l13.406-12.978c3-1.244,8.406-4.065,8.662-8
	c0.35-5.477,6.863-13.066,12.441-11.626c0,0,2.684,0.779,5.082-1.268c9.246-6.918,12.711-15.312,12.711-15.312
	s-2.732-30.74-1.061-53.807c1.68-23.079-13.209-31.521-13.209-31.521l-27.955-25.883c1.273-4.982,2.555-10.346,3.822-16.084
	c9.316-12.084,14.299-25.341,13.357-36.151c-2.195-36.169-11.947-60.052-16.346-69.201c2.279-20.966,11.316-35.598,16.514-42.443
	c4.529,5.679,11.404,9.375,19.215,9.375c4.328,0,8.311-1.202,11.828-3.143l35.961,31.341l0.09-0.071
	c4.553,4.006,10.441,6.519,16.988,6.519c14.264,0,25.83-11.566,25.83-25.841C562.087,265.535,561.236,261.97,559.777,258.731z
	 M225.921,300.038c-1.637-1.101-3.197-2.435-4.732-4.06c-0.119-0.101-0.238-0.226-0.352-0.333
	c-4.947-4.947-8.667-10.334-11.131-16.055c-18.787-4.352-41.563-5.524-65.517,9.745c-7.638,5.304-13.781,10.906-18.805,16.656
	c-38.521,14.417-92.495,54.045-92.191,163.083l21.686,21.835l7.06-64.98l-3.298,68.13l11.721,14.524
	c0,0-5.929-102.93,36.711-162.755c-2.125,16.531,1.363,31.913,5.435,43.2c0.661,1.988,1.381,4.048,2.274,6.244
	c0,0,13.864,50.479-10.28,63.796c-10.822,7.174-0.446,18.454,0,26.646c0.446,8.202,4.661,58.408,4.661,58.408
	s-4.727,5.12-2.167,11.781c2.56,6.649,5.631,6.649,5.631,10.763c0,4.095-4.607,5.113-5.631,12.786c-1.03,7.697,0,10.257,0,10.257
	h2.721c0.601,14.055,9.06,13.834,9.06,13.834h33.806l-8.31-15.924c-0.286-3.202-1.31-9.096-5.012-10.215
	c-5.113-1.523-6.655-8.709-3.589-13.828c3.078-5.107,3.589-12.793,0-22.025c-3.583-9.215-0.506-43.527-0.506-43.527
	s4.095-8.208,7.685-14.34c0.565-0.977,2.357-2.227,4.893-3.834c1.03,2.061,1.911,4.048,2.268,5.864
	c1.595,8.202,12.87,58.408,12.87,58.408s-4.006,5.12-0.512,11.781c3.494,6.649,6.572,6.649,7.149,10.763
	c0.571,4.095-3.893,5.113-3.84,12.786c0.054,7.697,1.435,10.257,1.435,10.257h2.726c2.572,14.055,11.007,13.834,11.007,13.834
	h33.812l-10.542-15.924c-0.738-3.202-2.596-9.096-6.441-10.215c-5.34-1.523-7.888-8.709-5.536-13.828
	c2.357-5.107,1.786-12.793-3.102-22.025c-4.881-9.215-6.637-43.527-6.637-43.527s2.953-8.208,5.673-14.34
	c2.667-6.042,16.87-21.614,27.466-84.857c3.714-0.458,7.137-0.643,9.923-0.381c9.12,0.828,35.36,4.268,76.07,16.478l-2.965-65.153
	L225.921,300.038z M334.917,141.282c-0.732,16.68,10.797,31.848,27.697,35.098c18.566,3.578,36.502-8.596,40.057-27.15
	c0.631-3.322,0.756-6.625,0.441-9.822l22.5,3.31c2.912,0.423,5.633-1.601,6.078-4.524c0.418-2.911-1.607-5.631-4.523-6.054
	l-16.752-2.458c-1.701-14.906-11.537-28.27-26.662-33.55c-0.84-0.297-1.674-0.512-2.523-0.744c0.023-0.131,0.105-0.22,0.125-0.363
	c0.393-2.768-1.525-5.357-4.305-5.774c-2.785-0.411-5.369,1.518-5.779,4.304c-0.025,0.131,0.018,0.227,0.018,0.339
	c-17.014-0.351-33.074,10.132-38.992,27.091c-2.445,7.048-2.803,14.287-1.445,21.103L334.917,141.282z"/>
</svg>
