<?xml version="1.0" encoding="utf-8"?>
<!-- Generator: Adobe Illustrator 15.1.0, SVG Export Plug-In . SVG Version: 6.00 Build 0)  -->
<!DOCTYPE svg PUBLIC "-//W3C//DTD SVG 1.1//EN" "http://www.w3.org/Graphics/SVG/1.1/DTD/svg11.dtd">
<svg version="1.1" id="Calque_1" xmlns="http://www.w3.org/2000/svg" xmlns:xlink="http://www.w3.org/1999/xlink" x="0px" y="0px"
	 width="595.281px" height="841.891px" viewBox="0 0 595.281 841.891" enable-background="new 0 0 595.281 841.891"
	 xml:space="preserve">
<path d="M16.621,538.699c26.094,0,38.821,4.806,52.311,9.888c14.664,5.539,29.833,11.262,59.772,11.262
	c29.955,0,45.123-5.723,59.788-11.262c13.49-5.082,26.231-9.888,52.326-9.888c26.094,0,38.836,4.806,52.31,9.888
	c14.664,5.539,29.833,11.262,59.772,11.262c29.97,0,45.139-5.723,59.819-11.262c13.488-5.082,26.23-9.888,52.355-9.888
	c26.108,0,38.851,4.806,52.342,9.888c14.678,5.539,29.847,11.262,59.816,11.262c5.846,0,10.576-4.746,10.576-10.575
	s-4.747-10.574-10.576-10.574c-26.108,0-38.851-4.808-52.342-9.889c-14.678-5.54-29.847-11.262-59.802-11.262
	c-29.986,0-45.153,5.722-59.818,11.262c-13.488,5.081-26.231,9.889-52.355,9.889c-26.08,0-38.822-4.808-52.311-9.889
	c-14.665-5.54-29.833-11.262-59.787-11.262c-29.956,0-45.123,5.722-59.788,11.262c-13.49,5.081-26.216,9.889-52.325,9.889
	c-26.094,0-38.821-4.808-52.295-9.889c-14.665-5.54-29.833-11.262-59.788-11.262c-5.844,0-10.575,4.746-10.575,10.574
	C6.046,533.952,10.792,538.699,16.621,538.699z"/>
<path d="M577.246,605.643c-26.107,0-38.851-4.79-52.338-9.887c-14.681-5.54-29.85-11.263-59.804-11.263
	c-29.985,0-45.153,5.723-59.819,11.263c-13.488,5.097-26.23,9.887-52.356,9.887c-26.078,0-38.818-4.79-52.309-9.887
	c-14.665-5.54-29.833-11.263-59.788-11.263c-29.955,0-45.123,5.723-59.788,11.263c-13.49,5.097-26.216,9.887-52.326,9.887
	c-26.094,0-38.821-4.79-52.295-9.887c-14.665-5.54-29.833-11.263-59.788-11.263c-5.844,0-10.575,4.746-10.575,10.575
	s4.731,10.574,10.575,10.574c26.094,0,38.821,4.807,52.311,9.889c14.665,5.54,29.833,11.262,59.772,11.262
	c29.955,0,45.124-5.722,59.788-11.262c13.49-5.082,26.231-9.889,52.326-9.889c26.094,0,38.836,4.807,52.31,9.889
	c14.665,5.54,29.832,11.262,59.772,11.262c29.969,0,45.138-5.722,59.817-11.262c13.488-5.082,26.231-9.889,52.356-9.889
	c26.108,0,38.851,4.807,52.342,9.889c14.681,5.54,29.847,11.262,59.815,11.262c5.847,0,10.577-4.746,10.577-10.574
	C587.823,610.39,583.092,605.643,577.246,605.643z"/>
<path d="M355.347,126.609c-0.709,26.799-23.371,48.134-49.51,46.652c-25.097-1.423-45.248-22.656-45.349-47.836
	c-0.125-26.383,22.115-48.736,48.2-48.432C334.941,77.278,356.054,99.768,355.347,126.609z"/>
<path d="M494.933,135.609c-4.613-3.578-11.203-3.167-14.631,0.887c0,0,0,0-3.012,3.905c-39.902,51.54-53.957,107.49-31.396,124.938
	c22.557,17.472,73.189-10.162,113.086-61.701c3.018-3.905,3.018-3.905,3.018-3.905c3.078-4.328,1.816-10.787-2.803-14.37
	L494.933,135.609z"/>
<path fill="#FFFFFF" d="M185.171,649.588c5.309,4.117,12.886,3.65,16.83-1.014c0,0,0,0,3.467-4.493
	c45.916-59.311,62.09-123.689,36.127-143.781c-25.948-20.099-84.216,11.693-130.134,71.011c-3.473,4.492-3.473,4.492-3.473,4.492
	c-3.542,4.987-2.089,12.42,3.227,16.53L185.171,649.588z"/>
<path d="M184.495,639.598c4.613,3.577,11.197,3.173,14.626-0.881c0,0,0,0,3.012-3.905c39.902-51.539,53.956-107.484,31.395-124.943
	c-22.549-17.466-73.184,10.161-113.085,61.707c-3.018,3.904-3.018,3.904-3.018,3.904c-3.078,4.334-1.815,10.793,2.804,14.364
	L184.495,639.598z"/>
<path d="M172.762,591.945c-2.602,0-5.208-0.893-7.334-2.715c-4.732-4.054-5.28-11.173-1.22-15.905l315.606-368.271
	c4.041-4.727,11.162-5.28,15.9-1.22c4.732,4.048,5.273,11.173,1.225,15.9L181.328,587.999
	C179.102,590.605,175.941,591.945,172.762,591.945z"/>
<path d="M208.568,366.423c-0.006-13.167,1.292-23.817,2.655-36.592c13.704-128.717,47.367-138.795,54.819-140.51
	c8.37-1.922,18.126,0.107,27.966,4.965c18.59,9.173,18.727,39.586,9.59,58.188c-0.322,0.661-12.579,33.955-15.537,81.351
	c-0.565,8.929-2.583,30.258-2.583,30.258L208.568,366.423z"/>
<path d="M302.445,201.084l37.854,72.601l56.969,41.604c8.535,6.638,10.064,18.954,3.422,27.484
	c-6.102,7.828-16.982,9.769-25.328,4.881l-58.256-37.086c-1.881-1.107-61.236-80.208-61.236-80.208
	c-10.066-13.251-11.048-28.223,2.203-38.294c13.251-10.061,32.157-7.483,42.223,5.768
	C301.056,198.84,301.832,200.031,302.445,201.084z"/>
<g>
	<path d="M565.285,381.371l-16.822-1.53l-16.824-1.036l-33.65-2.054l-33.645-1.244l-33.646-0.72
		c-17.168-0.417-73.486,0.268-73.486,0.268l-101.49,120.301h35.717l0.417-0.256c1.411,0.006,2.828,0.047,4.232,0.041
		c44.866-0.238,89.733-3.477,134.599-10.507c44.861-7.113,89.732-17.078,134.594-35.925l9.822-4.107
		c10.852-4.59,18.893-14.858,20.031-27.413C596.787,399.051,583.421,383.02,565.285,381.371z"/>
	<path d="M296.086,375.608c-44.86,1.221-89.727,2.804-134.587,5.774c-22.442,1.315-44.866,3.125-67.308,5.083l-33.646,3.471
		l-16.823,1.774l-16.822,2.203c-10.971,1.464-20.835,8.792-24.954,19.888c-5.947,16.001,2.214,33.8,18.215,39.741l6.745,2.506
		c44.866,16.656,89.732,25.121,134.599,31.24c18.983,2.393,37.985,4.096,56.975,5.381l100.668-117.466L296.086,375.608z"/>
</g>
</svg>
