<?xml version="1.0" encoding="UTF-8" standalone="no"?>
<svg
   xmlns:sketch="http://www.bohemiancoding.com/sketch/ns"
   xmlns:dc="http://purl.org/dc/elements/1.1/"
   xmlns:cc="http://creativecommons.org/ns#"
   xmlns:rdf="http://www.w3.org/1999/02/22-rdf-syntax-ns#"
   xmlns:svg="http://www.w3.org/2000/svg"
   xmlns="http://www.w3.org/2000/svg"
   xmlns:sodipodi="http://sodipodi.sourceforge.net/DTD/sodipodi-0.dtd"
   xmlns:inkscape="http://www.inkscape.org/namespaces/inkscape"
   viewBox="0 0 58.002197 55.674797"
   version="1.1"
   x="0px"
   y="0px"
   id="svg22"
   sodipodi:docname="ludique.svg"
   inkscape:version="0.92.4 (5da689c313, 2019-01-14)"
   width="58.002197"
   height="55.674797">
  <metadata
     id="metadata28">
    <rdf:RDF>
      <cc:Work
         rdf:about="">
        <dc:format>image/svg+xml</dc:format>
        <dc:type
           rdf:resource="http://purl.org/dc/dcmitype/StillImage" />
        <dc:title>18 - Sand Toys (Solid)</dc:title>
      </cc:Work>
    </rdf:RDF>
  </metadata>
  <defs
     id="defs26" />
  <sodipodi:namedview
     pagecolor="#ffffff"
     bordercolor="#666666"
     borderopacity="1"
     objecttolerance="10"
     gridtolerance="10"
     guidetolerance="10"
     inkscape:pageopacity="0"
     inkscape:pageshadow="2"
     inkscape:window-width="3840"
     inkscape:window-height="2066"
     id="namedview24"
     showgrid="false"
     inkscape:zoom="19.07168"
     inkscape:cx="30.692507"
     inkscape:cy="28.618802"
     inkscape:window-x="-11"
     inkscape:window-y="-11"
     inkscape:window-maximized="1"
     inkscape:current-layer="svg22"
     fit-margin-top="0"
     fit-margin-left="0"
     fit-margin-right="0"
     fit-margin-bottom="0" />
  <title
     id="title2">18 - Sand Toys (Solid)</title>
  <desc
     id="desc4">Created with Sketch.</desc>
  <g
     sketch:type="MSPage"
     id="g16"
     style="fill:#008000;fill-rule:evenodd;stroke:none;stroke-width:1"
     transform="translate(0,-0.32520182)">
    <g
       sketch:type="MSLayerGroup"
       id="g14"
       style="fill:#008000">
      <path
         d="M 57.634,3.119 C 57.185,2.316 56.405,1.791 55.494,1.678 L 44.786,0.347 C 43.799,0.227 42.862,0.608 42.239,1.353 41.698,2 41.473,2.847 41.622,3.676 c 0.444,2.477 1.815,4.602 3.672,5.939 l -2.65,21.312 c -4.258,0.939 -7.609,4.469 -8.166,8.95 l -1.305,10.489 c -0.199,1.603 0.943,3.07 2.546,3.269 l 15.025,1.868 c 0.122,0.016 0.244,0.022 0.364,0.022 1.474,0 2.723,-1.103 2.905,-2.568 l 1.304,-10.489 c 0.345,-2.773 -0.417,-5.522 -2.145,-7.74 -0.978,-1.257 -2.204,-2.244 -3.581,-2.935 l 2.62,-21.067 C 54.563,9.964 56.64,8.125 57.747,5.681 58.123,4.851 58.082,3.917 57.634,3.119 Z m -1.71,1.737 c -1.087,2.402 -3.307,4.048 -5.67,4.232 L 48.052,8.814 C 45.829,8.065 44.062,5.951 43.59,3.322 43.53,2.987 43.679,2.748 43.773,2.635 43.939,2.438 44.178,2.324 44.43,2.324 c 0.036,0 0.073,0.002 0.11,0.007 l 10.706,1.331 c 0.274,0.034 0.508,0.193 0.644,0.435 0.133,0.237 0.146,0.514 0.034,0.759 z"
         sketch:type="MSShapeGroup"
         id="path6"
         inkscape:connector-curvature="0"
         style="fill:#008000" />
      <path
         d="M 34,28.277 V 25.723 C 34,24.222 32.779,23 31.277,23 H 2.723 C 1.221,23 0,24.222 0,25.723 v 2.554 C 0,29.778 1.221,31 2.723,31 H 3.68 l 1.25,9.058 C 7.363,44.203 11.856,47 17,47 c 5.144,0 9.637,-2.797 12.07,-6.942 L 30.32,31 h 0.957 C 32.779,31 34,29.778 34,28.277"
         sketch:type="MSShapeGroup"
         id="path8"
         inkscape:connector-curvature="0"
         style="fill:#008000" />
      <path
         d="M 32,20 H 31.96 C 31.713,16.731 30.249,16 29,16 28.09,16 27.459,16.337 27.017,16.841 26.034,16.147 24.827,15.954 23.755,16.384 23.042,13.257 20.736,11 18,11 15.684,11 13.606,12.666 12.621,15.187 12.103,14.97 11.558,14.857 11,14.857 9.517,14.857 8.162,15.64 7.231,16.971 6.581,16.439 5.806,16.143 5,16.143 3.077,16.143 1.468,17.8 1.087,20 H 1 v 2 h 31 v -2"
         sketch:type="MSShapeGroup"
         id="path10"
         inkscape:connector-curvature="0"
         style="fill:#008000" />
      <path
         d="m 5.484,44.08 1.27,9.208 C 6.967,54.834 8.305,56 9.866,56 h 14.268 c 1.561,0 2.899,-1.166 3.112,-2.712 l 1.27,-9.208 C 25.603,47.106 21.522,49 17,49 12.478,49 8.397,47.106 5.484,44.08"
         sketch:type="MSShapeGroup"
         id="path12"
         inkscape:connector-curvature="0"
         style="fill:#008000" />
    </g>
  </g>
</svg>
