<?xml version="1.0" encoding="UTF-8" standalone="no"?>
<svg
   xmlns:dc="http://purl.org/dc/elements/1.1/"
   xmlns:cc="http://creativecommons.org/ns#"
   xmlns:rdf="http://www.w3.org/1999/02/22-rdf-syntax-ns#"
   xmlns:svg="http://www.w3.org/2000/svg"
   xmlns="http://www.w3.org/2000/svg"
   xmlns:sodipodi="http://sodipodi.sourceforge.net/DTD/sodipodi-0.dtd"
   xmlns:inkscape="http://www.inkscape.org/namespaces/inkscape"
   version="1.1"
   x="0px"
   y="0px"
   viewBox="0 0 89.017998 68.968002"
   enable-background="new 0 0 100 100"
   xml:space="preserve"
   id="svg24"
   sodipodi:docname="meeting.svg"
   width="89.017998"
   height="68.968002"
   inkscape:version="0.92.4 (5da689c313, 2019-01-14)"><metadata
     id="metadata30"><rdf:RDF><cc:Work
         rdf:about=""><dc:format>image/svg+xml</dc:format><dc:type
           rdf:resource="http://purl.org/dc/dcmitype/StillImage" /><dc:title /></cc:Work></rdf:RDF></metadata><defs
     id="defs28" /><sodipodi:namedview
     pagecolor="#ffffff"
     bordercolor="#666666"
     borderopacity="1"
     objecttolerance="10"
     gridtolerance="10"
     guidetolerance="10"
     inkscape:pageopacity="0"
     inkscape:pageshadow="2"
     inkscape:window-width="3840"
     inkscape:window-height="2066"
     id="namedview26"
     showgrid="false"
     fit-margin-top="0"
     fit-margin-left="0"
     fit-margin-right="0"
     fit-margin-bottom="0"
     inkscape:zoom="10.680141"
     inkscape:cx="-5.6290497"
     inkscape:cy="15.031623"
     inkscape:window-x="-11"
     inkscape:window-y="-11"
     inkscape:window-maximized="1"
     inkscape:current-layer="svg24" /><path
     d="m 13.056,53.661999 c -0.021,0.032 -0.032,0.053 -0.032,0.074 v -0.074 z"
     id="path2"
     inkscape:connector-curvature="0"
     style="fill:#e74c3c;fill-opacity:0.98678416" /><path
     d="m 80.324,31.252999 c -2.048,0 -3.683,0.467 -4.978,1.263 -0.064,-4.097 -0.722,-8.769 -5.68,-8.769 -1.995,0 -3.491,0.563 -4.617,1.476 0.106,-3.641 0.615,-9.447 -4.745,-9.447 -4.639,0 -6.029,3.651 -6.571,6.974 -0.626,-0.266 -1.317,-0.488 -2.081,-0.679 -0.084,-0.329 -0.18,-0.669 -0.265,-1.009 -1.262,-4.83 -1.432,-10.796 -7.187,-10.892 -5.765,0.096 -5.934,6.062 -7.207,10.892 -0.086,0.308 -0.16,0.616 -0.244,0.913 -0.542,0.117 -1.04,0.255 -1.519,0.425 -0.584,-3.227 -2.027,-6.624 -6.517,-6.624 -5.361,0 -4.853,5.807 -4.746,9.447 -1.125,-0.913 -2.622,-1.476 -4.618,-1.476 -4.852,0 -5.582,4.459 -5.668,8.482 -1.21,-0.616 -2.675,-0.977 -4.4590001,-0.977 -9.71299999,0 -8.86299999,9.214 -8.046,17.886 0.636,6.699 4.734,10.148 7.876,11.603 2.6540001,1.231 4.9680001,2.197 6.9650001,2.951 0.02,0 0.031,0.01 0.041,0.01 6.571,3.153 18.101,5.266 27.951,5.266 9.437,0 22.006,-1.741 28.799,-5.01 2.145,-0.786 4.703,-1.836 7.685,-3.216 3.143,-1.455 7.24,-4.904 7.877,-11.603 0.829,-8.672 1.668,-17.886 -8.046,-17.886 z m -37.003,-19.182 c 0,-0.52 0.392,-0.934 0.868,-0.934 0.49,0 0.882,0.414 0.882,0.934 0,0.478 -0.328,0.871 -0.765,0.935 l 0.913,7.091 -0.817,1.21 -0.213,0.317 -0.21,-0.317 -0.819,-1.232 0.915,-7.07 c -0.426,-0.063 -0.754,-0.456 -0.754,-0.934 z m 32.045,42.494 c -0.009,0.095 -0.041,0.169 -0.073,0.222 -0.572,1.359 -3.258,2.846 -7.313,4.119 -5.902,1.869 -14.702,3.302 -23.969,3.302 -8.674,0 -16.698,-1.433 -22.419,-3.27 -4.672,-1.476 -7.804,-3.228 -8.482,-4.661 -0.042,-0.095 -0.074,-0.17 -0.085,-0.255 -0.021,-0.095 -0.021,-0.18 0,-0.286 v -0.074 h 0.032 c 0.03,-0.128 0.106,-0.266 0.243,-0.425 l 6.199,-8.45 3.557,-4.862 0.011,-0.01 4.416,-6.02 2.579,-3.514 2.981,-4.065 c 0.416,-0.542 1.17,-1.146 2.486,-1.635 0.181,-0.063 0.37,-0.127 0.572,-0.191 -0.18,0.722 -0.328,1.306 -0.435,1.688 0,0 0,0 0,0.01 -0.074,0.287 -0.118,0.457 -0.118,0.457 0,0 -0.126,0.36 -0.116,0.774 0.022,0.552 0.277,1.21 1.423,1.21 1.974,0 2.22,-1.719 2.22,-1.719 l 0.7,-3.132 c 1.199,-0.127 2.6,-0.202 4.235,-0.202 1.729,0 3.27,0.085 4.617,0.244 l 0.679,3.089 c 0,0 0.255,1.719 2.229,1.719 1.974,0 1.295,-1.984 1.295,-1.984 0,0 -0.212,-0.807 -0.521,-2.028 0.427,0.148 0.808,0.318 1.146,0.488 0.638,0.351 1.137,0.743 1.497,1.189 l 1.752,2.389 4.713,6.421 2.398,3.27 6.073,8.281 1.868,2.548 1.209,1.655 1.753,2.378 0.106,0.127 c 0.542,0.565 0.597,0.947 0.542,1.203 z"
     id="path4"
     inkscape:connector-curvature="0"
     style="fill:#e74c3c;fill-opacity:0.98678416" /><ellipse
     cx="44.196003"
     cy="4.6149998"
     rx="4.3000002"
     ry="4.6149998"
     id="ellipse6"
     style="fill:#e74c3c;fill-opacity:0.98678416" /><ellipse
     cx="29.387999"
     cy="9.9309998"
     rx="4.3000002"
     ry="4.6149998"
     id="ellipse8"
     style="fill:#e74c3c;fill-opacity:0.98678416" /><path
     d="m 23.889,16.718999 c 0,3.065 -2.313,5.55 -5.171,5.55 -2.854,0 -5.168,-2.485 -5.168,-5.55 0,-3.066 2.314,-5.552 5.168,-5.552 2.859,0 5.171,2.486 5.171,5.552 z"
     id="path10"
     inkscape:connector-curvature="0"
     style="fill:#e74c3c;fill-opacity:0.98678416" /><ellipse
     cx="6.4660001"
     cy="22.566998"
     rx="6.4660001"
     ry="6.941"
     id="ellipse12"
     style="fill:#e74c3c;fill-opacity:0.98678416" /><ellipse
     cx="59.630005"
     cy="9.9309998"
     rx="4.3000002"
     ry="4.6149998"
     id="ellipse14"
     style="fill:#e74c3c;fill-opacity:0.98678416" /><ellipse
     cx="70.298004"
     cy="16.719"
     rx="5.1700001"
     ry="5.5500002"
     id="ellipse16"
     style="fill:#e74c3c;fill-opacity:0.98678416" /><ellipse
     cx="82.552002"
     cy="22.566998"
     rx="6.4660001"
     ry="6.941"
     id="ellipse18"
     style="fill:#e74c3c;fill-opacity:0.98678416" /></svg>