<?xml version="1.0" encoding="utf-8"?>
<!-- Generator: Adobe Illustrator 15.1.0, SVG Export Plug-In . SVG Version: 6.00 Build 0)  -->
<!DOCTYPE svg PUBLIC "-//W3C//DTD SVG 1.1//EN" "http://www.w3.org/Graphics/SVG/1.1/DTD/svg11.dtd">
<svg version="1.1" id="Calque_1" xmlns="http://www.w3.org/2000/svg" xmlns:xlink="http://www.w3.org/1999/xlink" x="0px" y="0px"
	 width="595.281px" height="841.891px" viewBox="0 0 595.281 841.891" enable-background="new 0 0 595.281 841.891"
	 xml:space="preserve">
<title>Fishing Icon Set</title>
<path d="M101.912,467.794c3.872,1.113,7.877,1.694,11.905,1.726h91.495v63.101c-0.26,11.764,8.344,21.854,20.001,23.453
	c12.185,1.382,23.182-7.377,24.563-19.562c0.097-0.857,0.145-1.72,0.141-2.582v-83.815c0-17.129-13.885-31.015-31.014-31.015H163.94
	l16.846-57.444l55.659,27.978c0.954,0.71,2.02,1.253,3.155,1.607l5.536,2.738c10.87,4.546,23.389-0.319,28.335-11.013
	c3.344-6.042,4.013-13.207,1.846-19.763l47.622-47.623c0.746,4.476,2.82,8.624,5.953,11.906c9.135,8.618,23.527,8.198,32.145-0.938
	c8.266-8.761,8.266-22.447,0-31.208c-3.682-3.696-8.553-5.973-13.75-6.429l36.313-36.372l4.047,4.107
	c1.381,1.315,3.566,1.262,4.881-0.119c1.271-1.333,1.271-3.429,0-4.762l-4.107-4.048l28.99-28.99l4.049,4.048
	c1.303,1.348,3.449,1.385,4.797,0.083c0.029-0.027,0.057-0.055,0.084-0.083c1.309-1.341,1.309-3.481,0-4.822l-3.689-3.988
	l28.988-28.99l4.049,4.048c1.342,1.308,3.48,1.308,4.822,0c1.348-1.302,1.385-3.45,0.082-4.798
	c-0.027-0.028-0.055-0.056-0.082-0.083l-3.988-4.286l28.99-28.99l4.047,4.048c1.297,1.188,3.287,1.188,4.584,0v136.617
	c-14.646,10.031-23.521,26.539-23.811,44.289c0.492,18.074,9.246,34.923,23.752,45.718l-21.074,22.442h43.455l-21.191-22.442
	c14.467-10.834,23.227-27.654,23.811-45.718c-0.26-17.757-9.141-34.278-23.811-44.289V154.141c0.598-1.282,0.336-2.801-0.654-3.81
	l-7.322-7.322l-3.869-3.869l-2.262-2.262L322.701,295.162c-3.734-1.421-7.955-0.512-10.773,2.322l-51.611,51.611
	c-22.74-13.017-45.4-26.133-67.981-39.348l-2.738-1.607l-30.955-17.858c-15.206-8.709-34.592-3.442-43.301,11.764
	c-1.189,2.076-2.14,4.28-2.833,6.57l-25.597,84.946c-2.977,10.239-5.953,20.418-8.989,30.657
	C72.519,442.876,83.258,462.382,101.912,467.794z M494.796,310.104c3.779,0.1,6.764,3.245,6.662,7.024
	c-0.1,3.78-3.244,6.763-7.023,6.663c-3.777-0.1-6.76-3.242-6.662-7.02c0.096-3.711,3.133-6.668,6.846-6.667H494.796z
	 M482.177,147.831l2.619,2.619l-28.99,28.99l-2.619-2.619L482.177,147.831z M448.365,181.702l2.619,2.56l-28.93,28.99l-2.619-2.56
	L448.365,181.702z M414.613,215.573l2.561,2.619l-28.99,28.931l-2.561-2.619L414.613,215.573z M380.98,249.385l2.619,2.56
	l-36.908,36.908c-1.854-0.148-3.717-0.028-5.535,0.357L380.98,249.385z M334.667,300.698c5.922-5.934,15.531-5.944,21.467-0.022
	c0.008,0.007,0.014,0.015,0.021,0.022c5.936,5.935,5.936,15.556,0,21.49c-5.934,5.934-15.555,5.934-21.488,0
	c-5.936-5.922-5.945-15.533-0.023-21.467C334.652,300.713,334.66,300.706,334.667,300.698z"/>
<circle cx="193.396" cy="229.399" r="47.444"/>
<rect x="82.625" y="479.64" width="110.782" height="76.553"/>
<path d="M517.894,449.936c-7.035,0.163-13.918-2.061-19.525-6.311c-16.551-11.511-38.514-11.511-55.063,0
	c-11.656,8.422-27.396,8.422-39.051,0c-16.531-11.5-38.473-11.5-55.004,0c-11.637,8.412-27.355,8.412-38.992,0
	c-7.982-5.795-17.639-8.825-27.501-8.631v14.941c6.992-0.267,13.871,1.83,19.524,5.952c16.508,11.508,38.438,11.508,54.945,0
	c11.684-8.33,27.365-8.33,39.051,0c16.531,11.501,38.473,11.501,55.004,0c11.701-8.34,27.406-8.34,39.109,0
	c7.945,5.901,17.605,9.037,27.502,8.93V449.936z"/>
<path d="M443.306,492.974c-11.656,8.423-27.396,8.423-39.051,0c-16.553-11.432-38.451-11.432-55.004,0
	c-11.637,8.412-27.355,8.412-38.992,0c-7.992-5.77-17.646-8.778-27.501-8.571v14.882c7.034-0.164,13.917,2.061,19.524,6.31
	c16.508,11.508,38.438,11.508,54.945,0c11.654-8.422,27.396-8.422,39.051,0c16.531,11.5,38.473,11.5,55.004,0
	c11.678-8.413,27.43-8.413,39.109,0c7.982,5.795,17.639,8.825,27.502,8.632v-14.941c-7.035,0.163-13.918-2.061-19.525-6.311
	C481.792,481.549,459.882,481.549,443.306,492.974L443.306,492.974z"/>
</svg>
