<?xml version="1.0" encoding="utf-8"?>
<!-- Generator: Adobe Illustrator 15.1.0, SVG Export Plug-In . SVG Version: 6.00 Build 0)  -->
<!DOCTYPE svg PUBLIC "-//W3C//DTD SVG 1.1//EN" "http://www.w3.org/Graphics/SVG/1.1/DTD/svg11.dtd">
<svg version="1.1" id="Calque_1" xmlns="http://www.w3.org/2000/svg" xmlns:xlink="http://www.w3.org/1999/xlink" x="0px" y="0px"
	 width="595.281px" height="841.891px" viewBox="0 0 595.281 841.891" enable-background="new 0 0 595.281 841.891"
	 xml:space="preserve">
<g>
	<path d="M509.054,526.935c0,8.792-7.131,15.918-15.936,15.918c-13.27,0-19.168,5.298-28.08,13.305
		c-10.654,9.548-23.906,21.436-49.379,21.436c-25.447,0-38.699-11.882-49.354-21.436c-8.918-8.013-14.811-13.305-28.086-13.305
		c-13.27,0-19.168,5.298-28.104,13.305c-10.654,9.548-23.9,21.436-49.354,21.436c-25.455,0-38.723-11.882-49.373-21.436
		c-8.923-8.013-14.834-13.305-28.104-13.305c-13.263,0-19.162,5.298-28.097,13.305c-10.655,9.548-23.9,21.436-49.373,21.436
		c-8.786,0-15.912-7.125-15.912-15.918c0-8.792,7.131-15.93,15.912-15.93c13.287,0,19.186-5.292,28.115-13.292
		c10.644-9.549,23.906-21.442,49.354-21.442c22.103,0,34.979,8.947,44.979,17.549l61.659-22.71
		c-1.619-0.738-3.221-1.607-4.685-2.756l-55.766-43.462h-61.861c-8.429,0-16.198-4.589-20.258-11.971l-37.324-67.63
		c-3.965-7.173-3.846-15.906,0.333-22.948c4.167-7.066,11.733-11.4,19.948-11.4h54.831l45.229-28.216
		c10.852-6.774,25.126-3.458,31.907,7.388c0.149,0.232,0.25,0.464,0.387,0.696L130.313,48.895
		c337.667,72.833,378.741,353.174,378.741,353.174l-179.264,63.749l-65.438-136.736c3.744,10.09,0.042,21.757-9.453,27.68
		l-50.878,31.735c-3.667,2.292-7.923,3.506-12.251,3.506h-22.234l11.751,21.317h56.147c5.161,0,10.167,1.721,14.227,4.888
		l62.052,48.354c8.68,6.763,11.215,18.483,6.75,28.05l167.852-61.814c0,0-34.068,51.408-71.945,78.214
		c-9.113,6.459-21.066,12.078-33.949,16.912c1.805,1.536,3.525,3.06,5.162,4.53c8.928,8.007,14.834,13.293,28.078,13.293
		c13.287,0,19.168-5.293,28.104-13.293c10.65-9.549,23.906-21.442,49.355-21.442C501.917,511.011,509.054,518.143,509.054,526.935z
		 M493.119,577.587c-25.449,0-38.705,11.894-49.355,21.442c-8.936,8.019-14.811,13.305-28.104,13.305
		c-13.244,0-19.15-5.292-28.078-13.305c-10.656-9.549-23.906-21.442-49.361-21.442c-25.467,0-38.717,11.894-49.367,21.442
		c-8.923,8.019-14.822,13.305-28.085,13.305c-13.281,0-19.18-5.292-28.104-13.305c-10.655-9.549-23.9-21.442-49.372-21.442
		c-25.448,0-38.711,11.894-49.355,21.442c-8.929,8.019-14.829,13.305-28.115,13.305c-8.786,0-15.912,7.119-15.912,15.924
		c0,8.792,7.131,15.917,15.912,15.917c25.472,0,38.717-11.882,49.373-21.436c8.936-8.013,14.834-13.305,28.097-13.305
		c13.269,0,19.186,5.298,28.104,13.305c10.649,9.554,23.918,21.436,49.373,21.436s38.7-11.882,49.354-21.436
		c8.936-8.013,14.836-13.305,28.104-13.305c13.27,0,19.168,5.298,28.086,13.305c10.654,9.548,23.906,21.436,49.354,21.436
		c25.473,0,38.725-11.882,49.379-21.436c8.912-8.013,14.811-13.305,28.08-13.305c8.805,0,15.936-7.119,15.936-15.918
		C509.06,584.719,501.917,577.587,493.119,577.587z M118.717,337.112c17.936,0,32.479-14.543,32.479-32.479
		c0-17.936-14.543-32.479-32.479-32.479c-17.936,0-32.484,14.542-32.484,32.479C86.232,322.569,100.781,337.112,118.717,337.112z"/>
</g>
</svg>
