<?xml version="1.0" encoding="utf-8"?>
<!-- Generator: Adobe Illustrator 15.1.0, SVG Export Plug-In . SVG Version: 6.00 Build 0)  -->
<!DOCTYPE svg PUBLIC "-//W3C//DTD SVG 1.1//EN" "http://www.w3.org/Graphics/SVG/1.1/DTD/svg11.dtd">
<svg version="1.1"
	 id="Calque_1" xmlns:cc="http://creativecommons.org/ns#" xmlns:rdf="http://www.w3.org/1999/02/22-rdf-syntax-ns#" xmlns:dc="http://purl.org/dc/elements/1.1/" xmlns:svg="http://www.w3.org/2000/svg" xmlns:sodipodi="http://sodipodi.sourceforge.net/DTD/sodipodi-0.dtd" xmlns:inkscape="http://www.inkscape.org/namespaces/inkscape"
	 xmlns="http://www.w3.org/2000/svg" xmlns:xlink="http://www.w3.org/1999/xlink" x="0px" y="0px" width="595.281px"
	 height="841.891px" viewBox="0 0 595.281 841.891" enable-background="new 0 0 595.281 841.891" xml:space="preserve">
<g transform="translate(0,-284.29998)">
	<path d="M372.927,371.05c0-5.988-4.855-10.841-10.842-10.841c-5.988,0-10.842,4.854-10.842,10.841
		c-0.006,5.988,4.842,10.847,10.83,10.853c5.988,0.006,10.848-4.843,10.854-10.831C372.927,371.064,372.927,371.057,372.927,371.05
		L372.927,371.05z"/>
	<path d="M348.046,409.963c0-9.101-7.377-16.479-16.479-16.479c-9.1,0-16.477,7.378-16.477,16.479c0,9.1,7.377,16.479,16.477,16.479
		C340.669,426.442,348.046,419.063,348.046,409.963z"/>
	<path d="M420.97,426.803c0.008-9.815-7.943-17.777-17.758-17.785c-9.816-0.006-17.777,7.945-17.785,17.76c0,0.009,0,0.016,0,0.024
		c-0.006,9.816,7.945,17.777,17.76,17.785c9.814,0.006,17.777-7.945,17.783-17.76C420.97,426.819,420.97,426.812,420.97,426.803z"/>
	<path d="M465.298,474.267c0.008-6.714-5.428-12.163-12.143-12.17c-6.713-0.008-12.162,5.429-12.17,12.142c0,0.01,0,0.019,0,0.029
		c-0.008,6.714,5.428,12.163,12.143,12.17c6.713,0.009,12.162-5.428,12.17-12.142C465.298,474.285,465.298,474.277,465.298,474.267z
		"/>
	<path d="M278.802,523.22c-13.602,4.816-20.723,19.747-15.906,33.349c4.783,13.508,19.555,20.641,33.108,15.989l121.259-42.269
		c13.59-4.848,20.676-19.796,15.828-33.385c-4.799-13.45-19.508-20.555-33.025-15.953L278.802,523.22z"/>
	<path d="M520.365,600.603c-22.371-4.776-36.633-26.782-31.857-49.153c4.777-22.369,26.783-36.632,49.152-31.855
		c22.369,4.776,36.633,26.782,31.855,49.152c-3.408,15.971-15.885,28.446-31.855,31.856c-0.703,0.156-1.148,0.854-0.992,1.559
		c0.072,0.317,0.258,0.597,0.523,0.784c6.453,4.541,8.004,13.452,3.465,19.905c-4.229,6.012-12.33,7.834-18.727,4.211
		c-14.385,8.544-31.635,10.846-47.758,6.374l-34.719,36.35c-2.318,2.432-3.611,5.663-3.609,9.023v51.128
		c-0.068,9.018-7.436,16.271-16.453,16.202c-8.92-0.068-16.135-7.282-16.203-16.202v-64.215c-0.002-3.36,1.291-6.592,3.609-9.023
		l16.457-17.231c0.984-1.056,0.926-2.709-0.131-3.692c-0.693-0.648-1.686-0.867-2.588-0.574l-67.65,22.162l-105.66,81.356
		l-95.84,39.34c-4.089,1.679-7.052,5.311-7.875,9.655c-7.508,39.645-24.378,76.92-49.207,108.726
		c-3.691,4.722-10.123,6.327-15.599,3.891c-5.015-2.229-9.615-5.294-13.603-9.064c-5.246-4.952-5.483-13.22-0.531-18.466
		c0.77-0.815,1.642-1.528,2.593-2.121c31.782-19.754,52.297-53.425,55.277-90.727c0.664-8.297,5.24-15.78,12.323-20.15
		l96.098-59.317l57.091-53.936c1.574-1.486,1.645-3.966,0.159-5.54c-1.062-1.125-2.684-1.519-4.144-1.008l-59.453,20.723
		c-13.077,4.557-27.438-1.881-32.736-14.676l-37.175-89.766c-1.35-3.234-5.01-4.826-8.296-3.609
		c-35.194,12.993-73.059,17.065-110.211,11.85c-6.451-0.904-11.25-6.422-11.25-12.937V540.44c0-7.214,5.847-13.063,13.062-13.064
		c2.042,0,4.056,0.479,5.879,1.398c35.258,17.774,77.279,15.616,110.53-5.676c6.076-3.889,14.155-2.116,18.044,3.961
		c0.152,0.237,0.297,0.479,0.433,0.727l44.36,80.306c1.542,2.781,4.863,4.048,7.865,3l221.186-77.096
		c6.697-2.334,14.033,1.1,16.527,7.739l22.172,59.045c3.525,9.392,1.363,19.973-5.564,27.229c12.799,2.67,26.129,0.682,37.592-5.606
		c-4.178-6.468-2.479-15.083,3.844-19.479c0.59-0.415,0.73-1.23,0.314-1.82c-0.186-0.266-0.467-0.453-0.783-0.523L520.365,600.603z"
		/>
</g>
<text transform="matrix(1 0 0 1 -0.0068 1347.2832)" font-family="'Arial-BoldMT'" font-size="234.3623">Created by Phạm Thanh Lộc</text>
<text transform="matrix(1 0 0 1 -0.0068 1581.623)" font-family="'Arial-BoldMT'" font-size="234.3623">from the Noun Project</text>
</svg>
