<?xml version="1.0" encoding="utf-8"?>
<!-- Generator: Adobe Illustrator 15.1.0, SVG Export Plug-In . SVG Version: 6.00 Build 0)  -->
<!DOCTYPE svg PUBLIC "-//W3C//DTD SVG 1.1//EN" "http://www.w3.org/Graphics/SVG/1.1/DTD/svg11.dtd">
<svg version="1.1"
	 id="Calque_1" xmlns:cc="http://creativecommons.org/ns#" xmlns:rdf="http://www.w3.org/1999/02/22-rdf-syntax-ns#" xmlns:dc="http://purl.org/dc/elements/1.1/" xmlns:svg="http://www.w3.org/2000/svg" xmlns:sodipodi="http://sodipodi.sourceforge.net/DTD/sodipodi-0.dtd" xmlns:inkscape="http://www.inkscape.org/namespaces/inkscape"
	 xmlns="http://www.w3.org/2000/svg" xmlns:xlink="http://www.w3.org/1999/xlink" x="0px" y="0px" width="864.667px"
	 height="623.514px" viewBox="-119.193 59.266 864.667 623.514" enable-background="new -119.193 59.266 864.667 623.514"
	 xml:space="preserve">
<g transform="translate(0,-161.535)">
	<path d="M195.719,220.801c-30.147,0-54.586,24.44-54.586,54.588c0,0,0,0.001,0,0.001c0.001,30.147,24.439,54.585,54.586,54.586
		c30.147,0,54.586-24.438,54.587-54.586c0.002-30.147-24.436-54.588-54.584-54.59C195.721,220.801,195.72,220.801,195.719,220.801z
		 M293.426,336.792c-1.085,0-2.286,0.132-3.604,0.479c-10.544,2.826-7.718,13.372-7.718,13.372l12.304,42.678l-44.105,25.46v-50.596
		c0-12.097-9.739-21.835-21.835-21.835h-65.496c-10.213,0-18.72,6.952-21.13,16.395h-22.548h-10.917H97.462
		c-24.195,0-43.67,22.262-43.67,49.902v74.861c0,27.645,19.475,49.91,43.67,49.91h10.915h10.917h21.834v120.091
		c0,0-22.598,50.873-35.273,83.47c-0.119,0-0.237,0-0.356-0.132c-11.042-4.166-83.8,35.937-98.522,44.162l-126.17,53.306v6
		l226.824-76.903l111.842-67.764l54.617,15.176l46.253-14.524l98.463-85.984l106,8l220.667-50l-2.667-4.667
		c-39.275-4.597-232.263,30.406-232.263,30.406s-62.34-13.262-95.799-13.512c-3.463,0-6.615,0.088-9.357,0.352
		c-8.652,0.892-22.547,8.644-37.926,19.409l-45.906-185.241c3.521-5.77,3.85-13.214,0.219-19.502
		c-0.736-1.274-1.607-2.421-2.564-3.454c0,0,0.043-0.044,0.043-0.088c1.311-2.271,1.803-4.816,1.947-7.176
		c0.281-4.719-0.871-8.916-0.871-8.916l-5.65-21.092c-1.857-6.939-7.113-10.687-11.18-12.621l-0.311-1.257
		c0,0-2.164-8.072-9.77-8.204L293.426,336.792z M304.892,351.811c2.457,1.775,4.832,4.368,5.838,8.112l5.65,21.092
		c0,0,0.994,3.705,0.74,7.606c-0.113,1.696-0.467,3.357-1.109,4.75c-0.326-0.22-0.65-0.453-0.988-0.65L304.892,351.811z
		 M305.314,431.146l52.035,180.508c-15.428,11.575-31.484,25.219-44.781,37.471c-3.219-30.791-7.676-75.903-7.676-89.886
		c0-16.184-35.966-44.342-54.588-57.842v-38.494L305.314,431.146z M212.092,553.782c27.295,21.835,38.214,27.297,38.214,27.297
		l21.222,106.117c-10.503,0-26.643-6.095-42.779-12.189c-10.016-3.783-27.271,4.562-44.21,15.775l11.178-22.362L212.092,553.782z"/>
</g>
</svg>
