<?xml version="1.0" encoding="utf-8"?>
<!-- Generator: Adobe Illustrator 15.1.0, SVG Export Plug-In . SVG Version: 6.00 Build 0)  -->
<!DOCTYPE svg PUBLIC "-//W3C//DTD SVG 1.1//EN" "http://www.w3.org/Graphics/SVG/1.1/DTD/svg11.dtd">
<svg version="1.1" id="Calque_1" xmlns="http://www.w3.org/2000/svg" xmlns:xlink="http://www.w3.org/1999/xlink" x="0px" y="0px"
	 width="595.281px" height="841.891px" viewBox="0 0 595.281 841.891" enable-background="new 0 0 595.281 841.891"
	 xml:space="preserve">
<path d="M74.471,543.002c20.774,0,30.906,3.826,41.646,7.872c11.675,4.41,23.75,8.966,47.586,8.966
	c23.848,0,35.923-4.556,47.598-8.966c10.739-4.046,20.883-7.872,41.657-7.872s30.918,3.826,41.646,7.872
	c11.674,4.41,23.75,8.966,47.586,8.966c23.859,0,35.936-4.556,47.623-8.966c10.738-4.046,20.883-7.872,41.682-7.872
	c20.785,0,30.93,3.826,41.67,7.872c11.686,4.41,23.762,8.966,47.621,8.966c4.654,0,8.42-3.778,8.42-8.419s-3.779-8.419-8.42-8.419
	c-20.785,0-30.93-3.827-41.67-7.872c-11.686-4.41-23.762-8.966-47.609-8.966c-23.873,0-35.947,4.556-47.623,8.966
	c-10.738,4.045-20.883,7.872-41.682,7.872c-20.762,0-30.906-3.827-41.645-7.872c-11.675-4.41-23.751-8.966-47.599-8.966
	s-35.923,4.556-47.598,8.966c-10.739,4.045-20.871,7.872-41.657,7.872c-20.774,0-30.906-3.827-41.633-7.872
	c-11.675-4.41-23.75-8.966-47.598-8.966c-4.653,0-8.419,3.778-8.419,8.419S69.83,543.002,74.471,543.002z"/>
<path d="M520.796,596.298c-20.785,0-30.93-3.814-41.668-7.872c-11.688-4.41-23.764-8.966-47.611-8.966
	c-23.871,0-35.947,4.556-47.623,8.966c-10.738,4.058-20.883,7.872-41.682,7.872c-20.762,0-30.904-3.814-41.645-7.872
	c-11.675-4.41-23.75-8.966-47.598-8.966s-35.923,4.556-47.598,8.966c-10.739,4.058-20.871,7.872-41.657,7.872
	c-20.774,0-30.906-3.814-41.633-7.872c-11.675-4.41-23.75-8.966-47.598-8.966c-4.653,0-8.419,3.778-8.419,8.419
	s3.766,8.419,8.419,8.419c20.774,0,30.906,3.826,41.646,7.872c11.675,4.41,23.75,8.966,47.586,8.966
	c23.848,0,35.923-4.556,47.598-8.966c10.739-4.046,20.883-7.872,41.657-7.872c20.774,0,30.918,3.826,41.646,7.872
	c11.675,4.41,23.75,8.966,47.585,8.966c23.859,0,35.936-4.556,47.623-8.966c10.738-4.046,20.883-7.872,41.682-7.872
	c20.785,0,30.93,3.826,41.67,7.872c11.688,4.41,23.762,8.966,47.621,8.966c4.654,0,8.42-3.778,8.42-8.419
	S525.451,596.298,520.796,596.298z"/>
<path d="M211.215,515.206c10.18-3.22,22.766-5.893,41.754-5.893c26.921,0,41.063,5.334,53.551,10.06
	c10.059,3.803,17.992,6.791,35.691,6.791c17.713,0,25.658-2.988,35.717-6.791c12.502-4.726,26.643-10.06,53.588-10.06
	c20.229,0,33.252,3.013,43.76,6.512c-33.434-28.901-269.796-157.7-398.595-150.557C76.682,365.268,46.456,443.286,211.215,515.206z"
	/>
<circle cx="310.117" cy="126.245" r="46.323"/>
<path d="M212.442,213.605c2.15,2.854,5.175,4.957,8.613,5.989l67.327,20.191l12.234,68.603l-34.344,26.326
	c-2.089,1.616-3.863,3.584-5.236,5.844l-23.544,39.094c13.424,4.665,26.873,9.658,40.163,14.931l17.396-28.877l61.387-17.883
	l29.436,44.695v51c15.248,7.75,29.449,15.319,42.107,22.401v-77.192c0-2.49-0.449-4.969-1.313-7.326l-38.68-149.889h51.266
	c5.297,0,10.266-2.49,13.449-6.718l44.428-58.945c5.6-7.435,4.117-17.992-3.316-23.592c-7.436-5.613-17.992-4.119-23.58,3.304
	l-39.375,52.251c0,0-72.721-14.384-85.258-12.136l-31.635,5.637c-9.342,1.665-77.946-2.417-77.946-2.417l-46.505-61.678
	c-5.6-7.423-16.169-8.893-23.592-3.305c-7.423,5.601-8.905,16.158-3.304,23.593L212.442,213.605z"/>
</svg>
