<?xml version="1.0" encoding="utf-8"?>
<!-- Generator: Adobe Illustrator 15.1.0, SVG Export Plug-In . SVG Version: 6.00 Build 0)  -->
<!DOCTYPE svg PUBLIC "-//W3C//DTD SVG 1.1//EN" "http://www.w3.org/Graphics/SVG/1.1/DTD/svg11.dtd">
<svg version="1.1" id="Calque_1" xmlns="http://www.w3.org/2000/svg" xmlns:xlink="http://www.w3.org/1999/xlink" x="0px" y="0px"
	 width="595.281px" height="841.891px" viewBox="0 0 595.281 841.891" enable-background="new 0 0 595.281 841.891"
	 xml:space="preserve">
<g display="none">
	<rect x="-1142.938" y="48.895" display="inline" width="1101.269" height="589.328"/>
	<rect y="-165.406" display="inline" width="595.281" height="178.584"/>
	<text transform="matrix(1 0 0 1 392.8862 -67.1865)" display="inline" font-family="'ArialMT'" font-size="14.2867">http://thenounproject.com</text>
	<text transform="matrix(1 0 0 1 42.6606 -96.9492)" display="inline" font-family="'ArialMT'" font-size="36.6562">The Noun Project</text>
	<text transform="matrix(1 0 0 1 49.3286 -68.376)" display="inline" font-family="'ArialMT'" font-size="23.8112">Icon Template</text>
	<text transform="matrix(1 0 0 1 -1062.5752 111.3984)" display="inline" font-family="'ArialMT'" font-size="36.6562">Reminders</text>
	<line display="inline" fill="none" stroke="#FFFFFF" stroke-miterlimit="10" x1="47.623" y1="-37.421" x2="107.15" y2="-37.421"/>
	
		<line display="inline" fill="none" stroke="#FFFFFF" stroke-miterlimit="10" x1="-1065.552" y1="147.116" x2="-964.354" y2="147.116"/>
	<g display="inline">
		<g>
			<g>
				<rect x="-1016.75" y="235.325" width="51.914" height="51.444"/>
				<path d="M-978.968,300.77h28.258v-27.996h-28.258V300.77z M-948.079,303.371h-33.514v-33.21h33.514V303.371L-948.079,303.371z
					 M-989.481,311.188h49.284v-48.831h-49.284V311.188L-989.481,311.188z M-937.566,313.794h-54.545v-54.045h54.545V313.794
					L-937.566,313.794z"/>
				<polygon points="-989.052,311.61 -989.903,310.765 -940.62,261.928 -939.775,262.773 				"/>
			</g>
		</g>
	</g>
	<rect x="-1065.552" y="394.157" display="inline" fill="none" width="208.348" height="193.466"/>
	<text transform="matrix(1 0 0 1 -1065.5518 406.9966)" display="inline" font-family="'ArialMT'" font-size="17.8584">Strokes</text>
	<text transform="matrix(1 0 0 1 -1065.5518 436.7607)" display="inline" font-family="'ArialMT'" font-size="14.2867">Try to keep strokes at 4px</text>
	<text transform="matrix(1 0 0 1 -1065.5518 466.5283)" display="inline" font-family="'ArialMT'" font-size="14.2867">Minimum stroke weight is 2px</text>
	<text transform="matrix(1 0 0 1 -1065.5518 493.3115)" display="inline" font-family="'ArialMT'" font-size="14.2867">For thicker strokes use even </text>
	<text transform="matrix(1 0 0 1 -1065.5518 511.1709)" display="inline" font-family="'ArialMT'" font-size="14.2867">numbers: 6px, 8px etc.</text>
	<text transform="matrix(1 0 0 1 -1065.5518 537.9619)" display="inline" font-family="'ArialMT'" font-size="14.2867">Remember to expand strokes </text>
	<text transform="matrix(1 0 0 1 -1065.5518 555.8174)" display="inline" font-family="'ArialMT'" font-size="14.2867">before saving as an SVG </text>
	<rect x="-812.558" y="394.157" display="inline" fill="none" width="208.348" height="193.466"/>
	<text transform="matrix(1 0 0 1 -812.5537 406.9966)" display="inline" font-family="'ArialMT'" font-size="17.8584">Size</text>
	<text transform="matrix(1 0 0 1 -812.5537 436.7607)" display="inline" font-family="'ArialMT'" font-size="14.2867">Cannot be wider or taller than </text>
	<text transform="matrix(1 0 0 1 -812.5537 457.5986)" display="inline" font-family="'ArialMT'" font-size="14.2867">100px (artboard size)</text>
	<text transform="matrix(1 0 0 1 -812.5537 487.3604)" display="inline" font-family="'ArialMT'" font-size="14.2867">Scale your icon to fill as much of </text>
	<text transform="matrix(1 0 0 1 -812.5537 505.2178)" display="inline" font-family="'ArialMT'" font-size="14.2867">the artboard as possible</text>
	<rect x="-559.563" y="394.157" display="inline" fill="none" width="208.348" height="193.466"/>
	<text transform="matrix(1 0 0 1 -559.5635 406.9966)" display="inline" font-family="'ArialMT'" font-size="17.8584">Ungroup</text>
	<text transform="matrix(1 0 0 1 -559.5635 436.7607)" display="inline" font-family="'ArialMT'" font-size="14.2867">If your design has more than one </text>
	<text transform="matrix(1 0 0 1 -559.5635 454.6211)" display="inline" font-family="'ArialMT'" font-size="14.2867">shape, make sure to ungroup</text>
	<rect x="-297.64" y="394.157" display="inline" fill="none" width="208.348" height="193.466"/>
	<text transform="matrix(1 0 0 1 -297.6382 406.9966)" display="inline" font-family="'ArialMT'" font-size="17.8584">Save as</text>
	<text transform="matrix(1 0 0 1 -297.6382 436.7607)" display="inline" font-family="'ArialMT'" font-size="14.2867">Save as .SVG and make sure </text>
	<text transform="matrix(1 0 0 1 -297.6382 454.6211)" display="inline" font-family="'ArialMT'" font-size="14.2867">“Use Artboards” is checked</text>
	<text transform="matrix(1.0074 0 0 1 -747.3296 231.0088)" display="inline" font-family="'ArialMT'" font-size="15.3172">100px</text>
	<text transform="matrix(1.0074 0 0 1 -244.0674 281.0557)" display="inline" font-family="'ArialMT'" font-size="30.6343">.SVG</text>
	<rect x="-753.113" y="256.142" display="inline" width="61.082" height="60.629"/>
	<rect x="-752.893" y="237.992" display="inline" width="3.107" height="13.912"/>
	<rect x="-695.359" y="237.992" display="inline" width="3.113" height="13.912"/>
	<rect x="-756.006" y="241.391" display="inline" width="66.868" height="3.405"/>
	<g display="inline">
		<rect x="-498.875" y="250.361" width="61.343" height="60.457"/>
		<rect x="-457.229" y="219.782" width="19.692" height="19.412"/>
	</g>
	<rect x="-1062.575" y="182.833" display="inline" stroke="#FFFFFF" stroke-miterlimit="10" width="178.584" height="178.584"/>
	<rect x="-812.558" y="182.833" display="inline" stroke="#FFFFFF" stroke-miterlimit="10" width="178.584" height="178.584"/>
	<rect x="-556.587" y="182.833" display="inline" stroke="#FFFFFF" stroke-miterlimit="10" width="178.584" height="178.584"/>
	<rect x="-294.664" y="182.833" display="inline" stroke="#FFFFFF" stroke-miterlimit="10" width="178.584" height="178.584"/>
</g>
<g>
	<g>
		<path d="M368.824,333.963l11.77-4.262l-8.281-23.043l-14.072,4.53l1.041,2.839l-40.057,9.703
			c-23.263-17.108-58.474-43.628-58.474-43.628l65.47-58.962l5.314,38.098c0.822,7.191,4.363,12.691,11.514,16.251l30.662,11.453
			l-16.471,3.905c-4.018,0.714-5.75,3.815-5.018,7.864c1.172,4.482,3.326,4.482,3.82,6.393l1.512,4.256l14.037-4.53l-0.457-1.375
			l36.342-8.483c2.701-0.446,4.945-2.44,5.773-5.149c0.053-0.167,0.041-0.339,0.084-0.506c0.582-0.804,1.125-1.655,1.588-2.643
			c3.764-8.126-0.131-17.674-7.268-21.537l-45.551-16.341l-3.686-74.017c-0.91-2.929-4.326-14.388-6.32-16.43
			c-0.531-0.804-1.131-1.554-1.781-2.262c-12.186-13.941-33.316-15.275-47.199-3.024L193.954,249.6
			c-10.81,9.62-13.876,24.656-8.905,37.413c-10.37-1.595-16.823-3.786-19.132-2.56c-3.149,1.602-2.822,5.28,1.447,9.233
			c5.953,5.554,9.548,4.089,16.644,11.144c1.774,2.399,8.037,3.691,14.763,1.333l9.102,31.526l-2.333,0.393
			c-1.488,0.268-2.441,1.732-2.179,3.244c0.226,1.238,1.375,2.221,2.649,2.221c0.172,0,0.351-0.048,0.488-0.048l0.292-0.042
			l2.619,9.548c-0.179,0.125-19.228,23.139-19.228,23.139c-0.179-0.131-0.179-0.369-0.351-0.458
			c-0.828-0.661-1.732-1.191-2.602-1.721c-0.351-0.262-0.732-0.53-1.089-0.81c-1.643-1.012-3.637-0.75-4.995,0.5
			c-1.417-0.893-2.821-1.691-4.238-2.542c0.083-0.881-0.047-1.816-0.446-2.578c-0.423-0.798-1.042-1.458-1.911-1.857
			c-1.333-0.631-2.685-1.297-4.065-1.863c-1.708-0.708-3.62-0.178-4.816,1.191c-1.488-0.619-3.042-1.191-4.637-1.721
			c-0.095-1.78-1.22-3.429-3.042-3.911c-1.399-0.441-2.822-0.798-4.262-1.161c-0.869-0.167-1.738-0.131-2.506,0.185
			c-0.774,0.315-1.471,0.887-1.953,1.595c-1.595-0.357-3.328-0.529-4.953-0.839c-0.417-1.649-1.774-3.018-3.596-3.25
			c-1.47-0.125-2.953-0.262-4.417-0.393c-1.78-0.131-3.399,0.935-4.089,2.488c-0.905-0.053-1.816-0.089-2.685-0.137
			c-0.911,0.054-1.774,0.089-2.69,0.137c-0.661-1.554-2.262-2.619-4.083-2.488c-1.458,0.131-2.953,0.268-4.423,0.447
			c-1.815,0.178-3.167,1.547-3.571,3.286c-1.643,0.22-3.328,0.441-4.971,0.75c-0.494-0.702-1.179-1.28-1.958-1.595
			c-0.78-0.321-1.619-0.399-2.488-0.185c-1.464,0.369-2.863,0.72-4.286,1.161c-1.821,0.482-2.953,2.131-3.042,3.911
			c-1.601,0.53-3.131,1.102-4.637,1.721c-1.179-1.369-3.089-1.899-4.822-1.191c-1.375,0.572-2.726,1.232-4.042,1.863
			c-0.869,0.393-1.512,1.06-1.905,1.857c-0.417,0.762-0.56,1.69-0.47,2.578c-1.446,0.81-2.822,1.643-4.214,2.542
			c-1.375-1.25-3.375-1.512-5.012-0.5c-1.268,0.857-2.488,1.649-3.691,2.53c-1.613,1.119-2.125,3.161-1.53,4.941
			c-1.262,1.018-2.602,1.94-3.822,3.018c-1.548-1.03-3.596-0.922-5.06,0.357c-1.089,1.06-2.179,2.042-3.22,3.102
			c-0.738,0.679-1.137,1.607-1.221,2.488c-0.137,0.893,0.083,1.863,0.53,2.72c-1.089,1.143-2.179,2.381-3.214,3.589
			c-1.732-0.792-3.822-0.44-5.042,1.161c-0.905,1.19-1.821,2.357-2.685,3.548c-1.173,1.643-1.042,3.78,0.131,5.298
			c-0.863,1.28-1.643,2.703-2.506,4.113c-1.863-0.619-3.905,0.089-4.857,1.911c-0.738,1.25-1.446,2.631-2.125,3.953
			c-0.226,0.44-0.357,0.929-0.423,1.411c-0.131,1.161,0.292,2.357,1.066,3.238c0.172,0.19,0.315,0.453,0.488,0.631
			c-0.643,1.405-1.31,2.839-1.911,4.345c-1.905-0.214-3.81,0.815-4.548,2.709c-0.488,1.423-0.958,2.851-1.399,4.31
			c-0.333,0.988-0.22,2,0.137,2.84c0.351,0.94,0.994,1.69,1.863,2.179c-0.429,1.512-0.821,3.06-1.179,4.613
			c-0.958,0.047-2.304,0.356-3.03,0.94c-0.732,0.667-1.852,1.464-1.852,2.477v0.047c0,1.423-0.101,2.941-0.321,4.441
			c-0.155,0.982,0.28,2,0.768,2.762c0.512,0.84,1.339,1.459,2.232,1.81c-0.131,1.56-0.125,3.203-0.22,4.751
			c-1.952,0.369-3.482,2.012-3.524,4.131c-0.042,0.94-0.03,1.732-0.03,2.625c0,0.661,0.006,1.238,0.048,1.857
			c0,0.881,0.339,1.648,0.738,2.268c0.375,0.59,0.822,1.06,1.417,1.382c0.405,0.22,0.869,0.44,1.363,0.529
			c0.083,1.56,0.083,3.161,0.22,4.75c-0.44,0.173-0.869,0.394-1.22,0.751c-1.089,0.893-1.732,2.31-1.512,3.863
			c0.203,1.47,0.47,2.929,0.69,4.398c0.179,1.013,0.738,1.894,1.464,2.53c0.732,0.673,1.619,1.012,2.643,1.071
			c0.31,1.506,0.708,2.971,1.131,4.519c-0.423,0.238-0.822,0.529-1.131,0.94c-0.958,1.06-1.375,2.577-0.911,4.077
			c0.446,1.471,0.911,2.84,1.399,4.311c0.601,1.779,2.262,2.839,3.994,2.839c0.179,0,0.375-0.029,0.56-0.089
			c0.578,1.471,1.221,2.94,1.863,4.411c-0.78,0.619-1.286,1.5-1.506,2.381c-0.095,0.452-0.143,0.94-0.095,1.423
			c0.042,0.488,0.178,0.94,0.422,1.429c0.667,1.321,1.357,2.643,2.089,3.982c0.78,1.381,2.221,2.221,3.727,2.221
			c0.399,0,0.774-0.173,1.131-0.31c0.869,1.381,1.643,2.839,2.512,4.179c-1.071,1.363-1.155,3.143-0.375,4.661
			c0.083,0.22,0.042,0.44,0.173,0.619c0.375,0.541,0.786,1.029,1.161,1.56c0.488,0.66,0.994,1.327,1.53,2.048
			c0.423,0.529,0.911,0.875,1.512,1.143c0.577,0.268,1.173,0.393,1.821,0.393c0.53,0,1.083-0.291,1.578-0.529
			c1.107,1.25,2.197,2.488,3.328,3.738c-0.464,0.839-0.685,1.779-0.547,2.702c0.089,0.929,0.506,1.869,1.196,2.53
			c1.048,1.036,2.137,2.096,3.227,3.065c0.399,0.411,0.863,0.673,1.304,0.84c0.512,0.19,1,0.279,1.512,0.279
			c0.822,0,1.554-0.279,2.221-0.702c1.244,1.012,2.554,2.03,3.821,3.012c-0.619,1.769-0.083,3.769,1.512,4.971
			c1.179,0.84,2.399,1.69,3.643,2.53c0.732,0.488,1.488,0.66,2.31,0.66c0.994,0,1.863-0.481,2.637-1.143
			c1.464,0.84,2.822,1.762,4.333,2.53c-0.292,1.81,0.578,3.643,2.262,4.53c1.352,0.619,2.691,1.19,4.042,1.827
			c0.512,0.262,1.089,0.357,1.643,0.357c1.173,0,2.214-0.619,3.036-1.565c1.56,0.618,3.131,1.25,4.733,1.785
			c0.095,1.822,1.22,3.453,2.994,4.001c1.417,0.351,2.863,0.791,4.286,1.143c0.363,0.089,0.69,0.131,1.042,0.131
			c1.399,0,2.685-0.75,3.464-1.899c1.619,0.346,3.31,0.566,4.953,0.846c0.393,1.732,1.774,1.631,3.595,1.857
			c1.423,0.167,2.881-1.036,4.37-1.036c0.089,0,0.178,0,0.333,0c1.619,0,3.131,0,3.774,0h0.178c1.042,0,2.131,0.34,3.173,0.394
			c1.089-0.06,2.221-1.447,3.328-1.494c0.673,1.47,2.179,1.101,3.822,1.101c0.137,0,0.226,0,0.31,0c1.512,0,2.953,1.203,4.423,1.024
			c1.816-0.221,3.179-0.857,3.572-2.59c1.637-0.279,3.333-0.131,4.977-0.477c0.774,1.149,2.083,2.09,3.435,2.09
			c0.375,0,0.691,0.042,1.048-0.048c1.423-0.356,2.822-0.702,4.238-1.154c1.822-0.488,2.953-2.102,3.042-3.917
			c1.602-0.536,3.179-1.149,4.727-1.774c0.821,0.94,1.863,1.572,3.042,1.572c0.554,0,1.155-0.09,1.643-0.352
			c1.351-0.631,2.726-1.209,4.042-1.827c1.685-0.84,2.554-2.721,2.28-4.53c1.488-0.769,2.863-1.69,4.31-2.53
			c0.774,0.661,1.685,1.143,2.637,1.143c0.822,0,1.602-0.172,2.333-0.702c1.227-0.798,2.447-1.648,3.619-2.488
			c1.596-1.16,2.155-3.202,1.512-4.971c1.262-0.981,2.596-1.952,3.816-3.012c0.69,0.393,1.399,0.702,2.22,0.702
			c0.506,0,1-0.089,1.464-0.279c0.494-0.161,0.958-0.423,1.357-0.84c1.089-0.97,2.196-2.029,3.238-3.065
			c0.667-0.655,1.089-1.602,1.179-2.53c0.131-0.923-0.089-1.863-0.56-2.702c1.155-1.25,2.292-2.488,3.333-3.738
			c0.488,0.238,1.048,0.529,1.595,0.529c1.262,0,2.482-0.529,3.31-1.542c0.905-1.208,1.821-2.398,2.685-3.601
			c1.179-1.632,1-3.78-0.179-5.28c0.869-1.369,1.625-2.798,2.482-4.18c0.381,0.132,0.738,0.311,1.155,0.311
			c1.488,0,2.953-0.792,3.708-2.221c0.738-1.34,1.417-2.661,2.107-3.982c0.226-0.488,0.363-0.94,0.399-1.429
			c0.042-0.44,0-0.971-0.089-1.423c-0.22-0.881-0.732-1.768-1.512-2.381c0.471-1.078,0.917-2.144,1.381-3.25l19.311,4.577
			c0.178,0.042,0.381,0.089,0.601,0.131l1.047,0.262l0.042-0.131c1.512,0.269,2.994,0.53,4.596,0.53
			c8.947,0.048,16.828-4.53,21.466-11.453l19.001,5.512c1.816,2.661,4.947,4.352,8.417,4.119c3.096-0.208,5.709-1.893,7.299-4.304
			c10.352-2.048,18.758-10.459,20.104-21.585l11.852-106.68L368.824,333.963z M351.56,333.385l-9.297,13.644
			c0.387-3.465,0.148-6.947-4.322-9.87c-0.227-0.148-0.518-0.345-0.805-0.536L351.56,333.385z M208.467,307.598
			c13.501,9.12,31.574,21.126,47.271,31.514l-32.99,7.995l-1.774-6.31c1.304-0.399,2.22-1.685,1.946-3.06
			c-0.28-1.512-1.643-2.488-3.149-2.227l-3.125,0.625L208.467,307.598z M180.144,412.147c11.995,11.018,20.365,25.882,23.139,42.634
			l-46.771-5.87c-0.958-1.643-1.958-3.202-3.155-4.655L180.144,412.147z M129.997,541.406c-41.122,0-74.398-33.3-74.398-74.375
			c0-41.115,33.276-74.416,74.398-74.416c13.799,0,26.681,3.81,37.783,10.34l-26.621,31.794c-3.994-1.732-8.394-2.792-13.031-2.792
			c-17.959,0-32.567,14.644-32.567,32.764c0,18.031,14.614,32.675,32.567,32.675c8.126,0,15.501-3.071,21.139-7.982l47.021,11.132
			C184.049,524.756,158.987,541.406,129.997,541.406z M125.009,483.682v0.048l11.382,2.661c-2.613,1.012-5.304,1.731-8.304,1.731
			c-12.876,0-23.311-10.53-23.311-23.4c0-12.971,10.459-23.483,23.335-23.483c2.357,0,4.583,0.482,6.738,1.143l-2.911,3.471
			c-0.863-0.173-1.774-0.232-2.679-0.279l-0.423-0.03c-0.226,0-0.446-0.131-0.714-0.131c-10.608,0-19.239,8.649-19.239,19.311
			C108.889,474.318,113.103,482.211,125.009,483.682z M133.682,482.961c3.619-1.106,6.774-3.143,9.125-6.029l4.727,0.791
			c-1.863,2.798-4.417,5.078-7.28,6.84L133.682,482.961z M147.046,461.96c-0.375-2.571-1.286-4.971-2.554-7.084l2.774-3.298
			c2.179,3.209,3.637,6.977,3.994,11.102L147.046,461.96z M197.508,498.063l-45.979-10.822c2.196-2.363,4.101-4.982,5.595-7.953
			l44.509,7.501C200.544,490.7,199.193,494.462,197.508,498.063z M204.187,471.562l-43.557-7.315
			c-0.042-4.441-1.089-8.62-2.822-12.447l45.914,5.721c0.423,3.119,0.69,6.268,0.69,9.518
			C204.413,468.532,204.276,470.05,204.187,471.562z M228.475,505.392c0.667-0.482,1.22-1.161,1.536-2.03
			c0.089-0.238,0.179-0.5,0.22-0.768c1.244,1.5,2.602,2.94,4.066,4.227L228.475,505.392z M240.684,462.989
			c-1.131,0.435-2.131,1.013-3.125,1.644l-0.048-0.048c-0.357,0.268-0.821,0.44-1.172,0.708c0-0.577,0-1.19-0.048-1.779
			c0-0.75-0.262-1.459-0.643-2.048l5.042,0.619C240.684,462.371,240.684,462.68,240.684,462.989z M232.695,458.418
			c-0.095-1.238-0.095-2.53-0.232-3.78c0.911-0.356,1.649-0.97,2.137-1.815c0.512-0.762-0.423-1.78-0.554-2.762
			c-0.244-1.494-1.887-3.013-1.887-4.436v-0.047c0-1.013,0.423-1.81-0.31-2.441c-0.714-0.619-1.089-0.922-2.042-0.97
			c-0.375-1.56-0.488-3.102-0.911-4.613c0.863-0.53,1.649-1.238,2.006-2.179c0.375-0.84,0.542-1.852,0.202-2.84
			c-0.44-1.452-0.845-2.881-1.357-4.31c-0.357-0.923-0.982-1.631-1.804-2.173c-0.822-0.44-1.768-0.619-2.727-0.536
			c-0.577-1.47-1.262-2.94-1.905-4.345c1.131-0.97,1.738-2.441,1.56-3.87c-0.042-0.482-0.172-0.929-0.417-1.369
			c-0.667-1.321-1.399-3.917-2.125-3.917h0.036c-0.994,0-3.084-2.571-4.905-1.952c-0.869-1.417-1.643-2.857-2.512-4.137
			c0.607-0.816,0.917-1.703,0.958-2.643c0.042-0.881-0.22-1.857-0.815-2.667c-0.31-0.44-0.667-0.929-1.048-1.417
			c-0.536-0.672-1.089-1.422-1.619-2.131c-1.238-1.607-3.328-1.953-5.06-1.161c-1.042-1.203-2.125-2.441-3.22-3.59
			c0.952-1.643,0.774-3.828-0.69-5.208c-0.399-0.435-0.869-0.875-1.316-1.28l13.055-15.632l9.453,35.604
			c9.905,15.59,15.763,33.883,16.031,53.634L232.695,458.418z M250.387,493.229c-3.333,0-6.012-2.75-6.012-6.048
			c0-3.363,2.685-6.131,6.012-6.131c3.357,0,6.042,2.768,6.042,6.131C256.423,490.521,253.738,493.229,250.387,493.229z
			 M262.959,463.841c-2.292-1.161-6.988-2.012-6.988-2.5v-0.071l-0.852-0.065c-0.089-0.042-0.327-0.09-0.458-0.09l-27.848-99.673
			l46.825-10.537c9.739,6.423,16.257,10.715,16.257,10.715l-7.965,74.166L262.959,463.841z M277.573,487.349l-1.185-0.346
			c0-0.131,0.042-0.22,0.042-0.31c0-4.44-1.22-8.518-3.131-12.167l5.06-7.447l-1.286,11.763
			C276.71,481.776,276.966,484.622,277.573,487.349z"/>
		<path d="M544.675,468.002c0.035-0.619,0-1.19,0.035-1.857c0-0.893,0-1.779-0.035-2.625c-0.047-2.119-1.578-3.769-3.541-4.096
			c-0.084-1.589-0.125-3.232-0.322-4.792c1.857-0.708,2.506-2.536,2.215-4.577c-0.203-1.488-1.322-3.007-1.322-4.43v-0.047
			c0-1.982-1.535-3.363-3.535-3.411c-0.316-1.56-0.453-3.102-0.852-4.661c1.727-0.923,2.727-2.971,2.119-4.971
			c-0.434-1.452-0.84-2.881-1.369-4.31c-0.678-1.894-2.561-2.923-4.465-2.709c-0.602-1.512-1.268-2.94-1.893-4.345
			c1.482-1.298,2.059-3.411,1.096-5.328c-0.637-1.28-1.363-2.661-2.084-3.911c-1-1.828-3.061-2.53-4.893-1.911
			c-0.828-1.411-1.607-2.839-2.471-4.113c1.178-1.518,1.314-3.649,0.125-5.298c-0.863-1.238-1.762-2.357-2.68-3.548
			c-1.262-1.607-3.303-1.953-5.041-1.161c-1.043-1.203-2.131-2.441-3.232-3.59c0.945-1.643,0.773-3.828-0.668-5.208
			c-1.053-1.06-2.131-2.042-3.244-3.102c-1.439-1.28-3.488-1.328-5.041-0.357c-1.227-1.078-2.561-2-3.822-3.018
			c0.602-1.822,0.043-3.822-1.553-4.941c-1.18-0.875-2.441-1.673-3.686-2.53c-1.625-1.012-3.613-0.75-5,0.5
			c-1.398-0.893-2.822-1.732-4.262-2.542c0.268-1.815-0.602-3.631-2.34-4.429c-1.311-0.631-2.686-1.298-4.037-1.863
			c-1.738-0.708-3.637-0.179-4.82,1.232c-1.512-0.661-3.09-1.232-4.639-1.762c-0.088-1.78-1.268-3.429-3.047-3.911
			c-1.416-0.44-2.816-0.798-4.279-1.161c-1.775-0.393-3.496,0.315-4.441,1.78c-1.643-0.357-3.334-0.53-4.971-0.75
			c-0.404-1.738-1.828-3.102-3.637-3.34c-1.447-0.125-2.912-0.262-4.406-0.393c-1.773-0.131-3.363,0.935-4.084,2.488
			c-0.861-0.054-1.773-0.089-2.637-0.137c-0.904,0.054-1.773,0.089-2.684,0.137c-0.732-1.554-2.334-2.62-4.084-2.488
			c-1.512,0.131-2.977,0.268-4.424,0.393c-1.82,0.232-3.166,1.602-3.596,3.34c-1.678,0.22-3.344,0.393-4.939,0.75
			c-1-1.464-2.732-2.173-4.465-1.78c-1.447,0.369-2.863,0.72-4.311,1.161c-1.732,0.482-2.857,2.089-3.029,3.863
			c-1.529-3.471-4.424-5.911-7.852-6.887c-1.441-3.995-2.555-7.06-3.119-8.834c-1.299-3.679-2.006-7.149-4.555-8.703
			c-5.172-1.065-7.988-5.899-9.506-8.304l-12.322,4.346c1.047,3.601,4.328,9.685,8.465,10.131c1.768,0.357,2.387,2.971,3.904,7.417
			c0.637,1.821,1.773,4.97,3.215,9.054c-1.953,2.923-2.578,6.661-1.578,10.292c-0.607,0.042-1.166,0.042-1.738,0.393
			c-1.262,0.857-2.506,1.649-3.672,2.53c-1.637,1.119-2.137,3.12-1.572,4.941c-1.25,1.018-2.57,1.941-3.846,3.018
			c-1.541-1.03-3.535-0.922-5,0.357c-1.084,1.06-2.178,2.042-3.262,3.102c-1.416,1.381-1.607,3.518-0.637,5.208
			c-1.131,1.143-2.174,2.381-3.221,3.589c-1.732-0.792-3.828-0.44-5.066,1.161c-0.951,1.19-1.82,2.31-2.732,3.548
			c-1.178,1.607-1,3.78,0.191,5.298c-0.869,1.28-1.637,2.703-2.5,4.113c-1.863-0.619-3.912,0.089-4.912,1.911
			c-0.721,1.297-1.416,2.577-2.107,3.953c-0.887,1.869-0.352,3.988,1.156,5.286c-0.639,1.405-1.34,2.875-1.912,4.345
			c-1.945-0.214-3.814,0.815-4.553,2.709c-0.52,1.423-0.953,2.851-1.424,4.31c-0.619,2,0.293,4.048,2.031,4.971
			c-0.43,1.56-0.645,3.102-1.02,4.709c-1.963,0-3.904,1.381-3.904,3.363v0.047c0,1.423-0.697,2.941-0.916,4.441
			c-0.256,2.042,0.82,3.911,2.631,4.577c-0.168,1.56-0.209,3.203-0.305,4.792c-1.951,0.328-2.416,1.971-2.465,4.096
			c-0.023,0.846,1.072,1.727,1.072,2.625c0,0.661,0,1.238,0,1.857c0,2.179,0.488,3.78,2.43,4.179
			c0.094,1.56-0.459,3.161-0.322,4.751c-1.84,0.66-3.322,2.529-3.018,4.613c0.178,1.41,0.332,2.929,0.559,4.398
			c0.34,2.09,2.012,3.542,4.012,3.542c0.311,1.607,0.691,3.078,1.09,4.578c-1.727,0.988-2.709,3.03-2.059,5.019
			c0.469,1.47,0.904,2.839,1.41,4.279c0.578,1.769,2.268,2.863,4,2.863c0.18,0.048,0.352-0.029,0.523-0.089
			c0.607,1.471,1.25,2.94,1.869,4.411c-1.535,1.279-2.096,3.411-1.184,5.238c0.695,1.321,1.369,2.644,2.096,3.982
			c0.785,1.429,2.238,2.221,3.721,2.221c0.381,0,0.785-0.173,1.16-0.31c0.797,1.381,1.578,2.81,2.482,4.179
			c-1.174,1.5-1.352,3.643-0.168,5.321c0.869,1.161,1.781,2.357,2.68,3.566c0.822,1.06,2.041,1.542,3.311,1.542
			c0.553,0,1.041-0.352,1.6-0.53c1.049,1.25,2.174,2.488,3.311,3.738c-0.953,1.673-0.756,3.828,0.637,5.232
			c1.049,1.036,2.137,2.096,3.244,3.065c0.805,0.763,1.799,1.119,2.816,1.119c0.762,0,1.494-0.279,2.232-0.702
			c1.209,1.06,2.5,2,3.814,3.013c-0.637,1.768-0.131,3.81,1.482,4.97c1.203,0.84,2.424,1.691,3.645,2.488
			c0.725,0.53,1.5,0.703,2.297,0.703c0.982,0,1.893-0.482,2.68-1.144c1.387,0.84,2.82,1.763,4.262,2.53
			c-0.221,1.81,0.643,3.69,2.334,4.53c1.309,0.619,2.66,1.19,4.041,1.827c0.482,0.262,1.084,0.357,1.631,0.357
			c1.186,0,2.227-0.619,3.012-1.565c1.566,0.619,3.174,1.25,4.764,1.785c0.102,1.822,1.227,3.453,3.012,3.941
			c1.393,0.452,2.857,0.852,4.256,1.202c0.369,0.09,0.686,0.131,1.061,0.131c1.363,0,2.666-0.75,3.439-1.898
			c1.643,0.345,3.334,0.565,4.959,0.845c0.369,1.673,1.779,3.102,3.596,3.322c1.465,0.179,2.91,0.315,4.369,0.44
			c0.137,0,0.227,0.048,0.322,0c1.684,0.048,3.125-0.971,3.809-2.44c1.131,0.047,2.244,0.095,3.375,0.148
			c1.09-0.06,2.221-0.107,3.311-0.148c0.691,1.47,2.197,2.44,3.822,2.488c0.137,0,0.221-0.048,0.332-0.048
			c1.488-0.125,2.953-0.262,4.395-0.44c1.826-0.221,3.189-1.644,3.602-3.322c1.631-0.279,3.332-0.5,4.939-0.845
			c0.781,1.148,2.049,1.898,3.465,1.898c0.316,0,0.697-0.048,1-0.131c1.471-0.357,2.857-0.75,4.264-1.202
			c1.826-0.488,2.928-2.119,3.023-3.941c1.625-0.5,3.215-1.16,4.768-1.785c0.834,0.94,1.834,1.565,3.006,1.565
			c0.578,0,1.131-0.096,1.686-0.357c1.346-0.631,2.66-1.208,4.035-1.827c1.691-0.84,2.512-2.721,2.268-4.53
			c1.52-0.768,2.863-1.69,4.293-2.53c0.779,0.661,1.684,1.144,2.686,1.144c0.75,0,1.576-0.173,2.314-0.661
			c1.209-0.839,2.453-1.69,3.631-2.53c1.602-1.202,2.125-3.202,1.512-4.97c1.27-0.982,2.578-2.001,3.822-3.013
			c0.654,0.423,1.393,0.702,2.174,0.702c1.047,0,2.047-0.356,2.857-1.119c1.1-0.97,2.131-2.029,3.219-3.065
			c1.418-1.404,1.607-3.56,0.639-5.232c1.1-1.25,2.225-2.488,3.309-3.738c0.518,0.238,1.023,0.529,1.607,0.529
			c1.215,0,2.465-0.529,3.334-1.541c0.91-1.209,1.822-2.399,2.66-3.602c1.197-1.631,1.023-3.78-0.172-5.28
			c0.869-1.369,1.637-2.798,2.453-4.179c0.41,0.131,0.779,0.31,1.184,0.31c1.506,0,2.953-0.792,3.674-2.221
			c0.738-1.34,1.469-2.661,2.1-3.982c0.947-1.827,0.383-3.959-1.131-5.238c0.645-1.471,1.27-2.94,1.857-4.411
			c0.186,0.06,0.357,0.089,0.561,0.089c1.709,0,3.352-1.101,3.994-2.839c0.439-1.471,0.945-2.84,1.404-4.31
			c0.602-1.941-0.32-4.03-2.047-5.019c0.416-1.5,0.814-2.971,1.131-4.519c1.945-0.06,3.684-1.512,4.064-3.596
			c0.27-1.47,0.477-2.988,0.709-4.398c0.285-2.09-0.91-3.953-2.732-4.613c0.154-1.59,0.154-3.191,0.244-4.751
			C543.134,471.782,544.675,470.181,544.675,468.002z M418.601,455.841l2.334,4.929c-0.518,1.375-0.834,2.875-0.834,4.53
			c0,7.893,6.459,14.382,14.377,14.382c7.939,0,14.357-6.488,14.357-14.43c0-6.488-4.393-11.989-10.369-13.722l-1.619-4.577
			c9.131,1.19,16.186,8.881,16.186,18.34c0,10.203-8.322,18.514-18.549,18.514c-10.24,0-18.502-8.311-18.502-18.514
			C415.976,461.799,416.976,458.591,418.601,455.841z M438.894,541.406c-41.115,0-74.434-33.3-74.434-74.375
			c0-24.87,12.221-46.794,30.912-60.343c0.096,0.22,0.125,0.399,0.227,0.578l0.174-0.268l18.34,39.164
			c-4.686,5.065-7.637,11.68-7.637,19.139c0,15.459,12.541,28.014,28.002,28.014c15.494,0,28.014-12.555,28.014-28.014
			c0-15.502-12.525-28.021-28.014-28.062c-0.363,0.041-0.703,0.131-1.049,0.131l-2.047-5.828
			c-4.197-11.227-8.883-23.889-13.275-35.961c6.584-1.911,13.543-2.97,20.781-2.97c41.086,0,74.416,33.3,74.363,74.356
			C513.257,508.112,479.98,541.406,438.894,541.406z"/>
		<path d="M384.457,167.552c20.549,2.524,39.258-12.167,41.781-32.812c2.506-20.65-12.072-39.384-32.633-41.919
			c-20.555-2.53-39.246,12.167-41.777,32.818C349.31,146.193,363.914,165.022,384.457,167.552z"/>
	</g>
</g>
</svg>
